<?xml version="1.0" encoding="utf-8"?>
<!-- Generator: Adobe Illustrator 16.0.0, SVG Export Plug-In . SVG Version: 6.00 Build 0)  -->
<!DOCTYPE svg PUBLIC "-//W3C//DTD SVG 1.1//EN" "http://www.w3.org/Graphics/SVG/1.1/DTD/svg11.dtd">
<svg version="1.1" id="Layer_1" xmlns="http://www.w3.org/2000/svg" xmlns:xlink="http://www.w3.org/1999/xlink" x="0px" y="0px"
	 width="510.236px" height="510.236px" viewBox="0 0 510.236 510.236" enable-background="new 0 0 510.236 510.236"
	 xml:space="preserve">
<g>
	<defs>
		<rect id="SVGID_1_" x="16.83" y="14.614" width="476.576" height="481.009"/>
	</defs>
	<clipPath id="SVGID_2_">
		<use xlink:href="#SVGID_1_"  overflow="visible"/>
	</clipPath>
	<path clip-path="url(#SVGID_2_)" fill="#FFFFFF" d="M483.914,375.408h-36.793c-5.838-8.251-6.125-9.112-7.332-12.896
		c-0.178-0.561-0.373-1.17-0.598-1.855c-0.186-0.569-0.4-1.154-0.637-1.755c0.436-0.642,0.791-1.339,1.063-2.085
		c0.102-0.272,0.188-0.52,0.254-0.764l0.023-0.075c0.086-0.262,0.148-0.567,0.184-0.868c0.35-2.096-0.023-4.258-1.063-6.11
		c-0.021-0.038-0.041-0.075-0.064-0.11l-0.201-0.337c-1.178-1.849-2.922-3.198-4.957-3.862c-0.012-0.14-0.025-0.281-0.047-0.419
		c-0.029-0.198-0.066-0.394-0.123-0.636c-0.096-0.446-0.203-0.824-0.342-1.208c-0.051-0.143-0.109-0.281-0.16-0.396
		c-0.139-0.346-0.289-0.679-0.422-0.91c-0.119-0.223-0.248-0.431-0.307-0.518c-1.336-2.112-3.418-3.579-5.877-4.128
		c-1.588-0.353-3.203-0.288-4.717,0.168l-0.678-0.473c-1.174-0.819-2.67-1.016-4.014-0.535l-1.486,0.535
		c-1.303,0.475-3.359,1.248-5.76,2.234c-15.617,6.385-23.639,12.329-25.166,18.676l-42.523,21.355l-16.354-21.028h43.156
		c5.471,0,8.654-2.267,10.359-4.172c3.211-3.586,3.268-8.017,3.174-9.581v-25.822h13.951c5.236,0,9.492-4.258,9.492-9.491
		c0-5.235-4.256-9.494-9.492-9.494h-13.951v-81.211c0-5.548-2.908-9.131-4.453-10.427l-9.678-8.933
		c-4.027-3.72-9.518-4.024-11.127-4.029h-12.018c2.906-8.208,4.426-16.843,4.426-25.312c0-7.754-1.199-15.261-3.404-22.343h16.686
		c5.234,0,9.494-4.259,9.494-9.493c0-5.235-4.26-9.493-9.494-9.493h-25.68c-3.531-5.36-7.729-10.25-12.484-14.547h63.873
		c5.234,0,9.492-4.257,9.492-9.493c0-5.233-4.258-9.492-9.492-9.492H287.746c0.003-0.17,0.006-0.34,0.006-0.51
		c0-25.279-8.547-46.095-23.278-59.966h10.09c5.234,0,9.493-4.258,9.493-9.493c0-5.233-4.259-9.492-9.493-9.492h-60.552
		c-0.732,0-1.44,0.092-2.126,0.248c-33.746,0.747-61.239,19.246-74.346,49.991c-3.681,0.25-6.799,2.836-7.692,6.44
		c-0.015,0.06-1.305,5.217-1.936,10.908c-4.069,2.485-6.65,6.942-6.65,11.846c0,7.652,6.224,13.877,13.878,13.877h27.885
		l4.209,5.935l-0.776,2.2h-34.181c-7.651,0-13.877,6.227-13.877,13.878c0,3.298,1.193,6.48,3.323,8.979
		c0.114,1.302,0.25,2.603,0.405,3.894c-1.493,2.254-2.298,4.9-2.298,7.635c0,4.791,2.465,9.187,6.427,11.707
		c0.199,0.607,0.405,1.206,0.615,1.796c-0.981,2.938-0.959,6.158,0.104,9.1c1.981,5.48,7.227,9.162,13.052,9.162
		c1.618,0,3.208-0.279,4.718-0.828l4.358-1.575c-0.105,1.213-0.181,2.428-0.224,3.64c-2.418,2.203-3.997,5.146-4.499,8.431
		c-0.122,0.792-0.178,1.585-0.168,2.371h-4.363c-2.987,0-5.587,1.03-7.516,2.982c-2.961,3.004-3.065,6.954-3.057,7.662v1.736
		c-12.289,0.395-22.389-9.036-26.82-13.981c0.545-3.521-0.453-7.172-2.808-9.907c2.146-6.875,4.093-17.229-0.007-25.177
		c-10.25-19.868-21.436-22.146-29.009-20.561c-1.355,0.281-2.662,0.688-3.94,1.224c-2.369-2.019-5.317-3.213-8.503-3.416
		c-3.888-0.257-7.653,1.018-10.623,3.566c-1.376,1.179-2.513,2.583-3.368,4.147c-2.872,0.362-5.581,1.557-7.822,3.478
		c-2.696,2.313-4.451,5.492-5.006,8.911c-1.17,0.563-2.27,1.276-3.261,2.129c-3.775,3.242-5.768,7.987-5.501,12.608
		c-0.3,0.222-0.593,0.454-0.877,0.698c-3.123,2.679-4.863,6.439-4.901,10.585c-0.036,3.661,1.276,7.235,3.64,10.002l10.918,13.292
		c1.797,2.734,9.478,13.219,22.961,15.782c0.435,0.748,0.949,1.451,1.545,2.105c2.264,2.483,5.387,3.896,8.632,4.014
		c7.776,12.502,29.717,42.313,64.751,47.982v52.905l-17.504,6.643c-7.746,2.302-14.166,7.454-18.092,14.527
		c-3.979,7.169-4.929,15.458-2.676,23.34c0.671,2.345,1.622,4.606,2.834,6.734l23.264,62.25
		c-16.436,7.025-36.601,14.094-47.87,14.48l-1.16,0.04c-1.095,0.036-2.136,0.479-2.922,1.242l-0.85,0.827
		c-0.92,0.899-8.846,9.24-4.064,24.783l0.419,1.365c0.391,1.265,1.328,2.287,2.554,2.785l1.366,0.556
		c0.371,0.147,1.99,0.769,4.684,1.487c1.272,3.682,4.771,6.301,8.844,6.301c0.203,0,0.405-0.007,0.532-0.015
		c1.746-0.099,3.39-0.668,4.794-1.642c1.71,1.792,4.118,2.903,6.771,2.903c0.045,0,0.089-0.002,0.132-0.003l0.288-0.009
		c0.042-0.001,0.085-0.002,0.127-0.006c2.103-0.122,4.06-0.93,5.617-2.296c1.678,1.208,3.814,1.864,6.021,1.742
		c3.709-0.213,6.796-2.572,8.124-5.804c10.782-1.173,11.595-1.011,15.614-0.195l1.874,0.374c0.592,0.114,1.21,0.215,1.854,0.3
		c1.532,3.107,4.73,5.228,8.396,5.228c0.183,0,0.364-0.006,0.536-0.017c2.177-0.122,4.198-0.98,5.784-2.435
		c1.306,0.568,2.759,0.844,4.272,0.76c2.493-0.143,4.785-1.249,6.457-3.12c1.078-1.216,1.81-2.654,2.149-4.201l0.74-0.358
		c1.294-0.626,2.201-1.842,2.434-3.26l0.25-1.539c3.285-20.144,2.078-32.764-3.589-37.507c-0.722-0.604-1.509-1.097-2.342-1.472
		l-2.218-21.018h9.836c5.234,0,9.492-4.258,9.492-9.493c0-5.234-4.258-9.492-9.492-9.492h-11.842l-1.35-12.802l47.439-8.47
		c1.675,0.309,3.197,0.252,4.237,0.2c0.052,0.166,0.106,0.348,0.162,0.533c0.788,2.619,2.634,8.751,11.128,9.965
		c2.609,0.374,4.729,0.267,6.45,0.181c0.586-0.03,1.291-0.065,1.665-0.057c0.107,0.105,0.287,0.297,0.555,0.627
		c6.451,7.934,15.236,5.629,19.379,4.148c2.037,1.291,5.219,3.154,9.125,3.154c2.187,0,4.272-0.577,6.191-1.715
		c1.986-1.174,3.835-2.589,5.53-4.229l45.795,39.183c5.773,5.669,13.4,8.788,21.5,8.788c8.197,0,15.906-3.195,21.703-8.994
		c0.934-0.933,1.82-1.958,2.697-3.118l45.939-37.346c8.893,6.821,31.371,24.738,38.713,36.956l0.6,0.997
		c0.564,0.94,1.461,1.637,2.51,1.953l1.092,0.327c0.592,0.179,2.229,0.598,4.627,0.598c2.662,0,6.82-0.547,11.508-3.146
		c0.344-0.192,0.689-0.389,1.002-0.584c2.357-1.425,4.613-3.255,6.709-5.444l0.984-1.034c0.918-0.959,1.352-2.279,1.186-3.593
		l-0.18-1.428c-0.029-0.241-0.266-1.994-0.982-4.836c2.592-2.903,3.178-7.232,1.197-10.791c-0.021-0.041-0.045-0.081-0.07-0.122
		l-0.215-0.353c-0.936-1.467-2.23-2.62-3.752-3.37c0.361-1.156,0.494-2.377,0.389-3.59h19.734c5.236,0,9.494-4.259,9.494-9.493
		C493.408,379.665,489.15,375.408,483.914,375.408"/>
	<path clip-path="url(#SVGID_2_)" fill="#FFFFFF" d="M188.79,401.803h-6.901c-5.234,0-9.492,4.258-9.492,9.492
		c0,5.235,4.258,9.492,9.492,9.492h6.901c5.234,0,9.492-4.257,9.492-9.492C198.282,406.061,194.024,401.803,188.79,401.803"/>
	<path clip-path="url(#SVGID_2_)" fill="#FFFFFF" d="M419.299,317.832h6.9c5.232,0,9.492-4.257,9.492-9.491
		c0-5.235-4.26-9.493-9.492-9.493h-6.9c-5.236,0-9.494,4.258-9.494,9.493C409.805,313.575,414.063,317.832,419.299,317.832"/>
	<path clip-path="url(#SVGID_2_)" fill="#FFFFFF" d="M301.114,33.598h13.606c5.234,0,9.494-4.257,9.494-9.493
		c0-5.234-4.26-9.491-9.494-9.491h-13.606c-5.235,0-9.493,4.257-9.493,9.491C291.621,29.341,295.879,33.598,301.114,33.598"/>
	<path clip-path="url(#SVGID_2_)" fill="#FFFFFF" d="M419.898,270.49h38.195c5.236,0,9.494-4.258,9.494-9.492
		c0-5.235-4.258-9.492-9.494-9.492h-38.195c-5.234,0-9.494,4.257-9.494,9.492C410.404,266.232,414.664,270.49,419.898,270.49"/>
	<path clip-path="url(#SVGID_2_)" fill="#FFFFFF" d="M384.434,127.606c-5.234,0-9.494,4.259-9.494,9.494
		c0,5.233,4.26,9.492,9.494,9.492h8.018c5.234,0,9.494-4.259,9.494-9.492c0-5.235-4.26-9.494-9.494-9.494H384.434z"/>
	<path clip-path="url(#SVGID_2_)" fill="#010202" d="M124.359,416.381c-2.809,0-5.087-2.277-5.087-5.086s2.278-5.085,5.087-5.085
		h38.198c2.809,0,5.085,2.276,5.085,5.085s-2.276,5.086-5.085,5.086H124.359z"/>
	<path clip-path="url(#SVGID_2_)" fill="none" stroke="#010202" stroke-width="2.563" stroke-miterlimit="10" d="M124.359,416.381
		c-2.809,0-5.087-2.277-5.087-5.086s2.278-5.085,5.087-5.085h38.198c2.809,0,5.085,2.276,5.085,5.085s-2.276,5.086-5.085,5.086
		H124.359z"/>
	<path clip-path="url(#SVGID_2_)" fill="#010202" d="M445.715,389.986c-2.809,0-5.084-2.277-5.084-5.086s2.275-5.085,5.084-5.085
		h38.199c2.809,0,5.086,2.276,5.086,5.085s-2.277,5.086-5.086,5.086H445.715z"/>
	<path clip-path="url(#SVGID_2_)" fill="none" stroke="#010202" stroke-width="2.563" stroke-miterlimit="10" d="M445.715,389.986
		c-2.809,0-5.084-2.277-5.084-5.086s2.275-5.085,5.084-5.085h38.199c2.809,0,5.086,2.276,5.086,5.085s-2.277,5.086-5.086,5.086
		H445.715z"/>
	<path clip-path="url(#SVGID_2_)" fill="#010202" d="M181.89,416.381c-2.809,0-5.086-2.277-5.086-5.086s2.277-5.085,5.086-5.085h6.9
		c2.809,0,5.086,2.276,5.086,5.085s-2.277,5.086-5.086,5.086H181.89z"/>
	<path clip-path="url(#SVGID_2_)" fill="none" stroke="#010202" stroke-width="2.563" stroke-miterlimit="10" d="M181.89,416.381
		c-2.809,0-5.086-2.277-5.086-5.086s2.277-5.085,5.086-5.085h6.9c2.809,0,5.086,2.276,5.086,5.085s-2.277,5.086-5.086,5.086H181.89z
		"/>
	<path clip-path="url(#SVGID_2_)" fill="#010202" d="M369.438,313.426c-2.809,0-5.084-2.278-5.084-5.086
		c0-2.809,2.275-5.086,5.084-5.086h27.021c2.809,0,5.086,2.277,5.086,5.086c0,2.808-2.277,5.086-5.086,5.086H369.438z"/>
	<path clip-path="url(#SVGID_2_)" fill="none" stroke="#010202" stroke-width="2.563" stroke-miterlimit="10" d="M369.438,313.426
		c-2.809,0-5.084-2.278-5.084-5.086c0-2.809,2.275-5.086,5.084-5.086h27.021c2.809,0,5.086,2.277,5.086,5.086
		c0,2.808-2.277,5.086-5.086,5.086H369.438z"/>
	<path clip-path="url(#SVGID_2_)" fill="#010202" d="M419.299,313.426c-2.811,0-5.088-2.278-5.088-5.086
		c0-2.809,2.277-5.086,5.088-5.086h6.9c2.809,0,5.086,2.277,5.086,5.086c0,2.808-2.277,5.086-5.086,5.086H419.299z"/>
	<path clip-path="url(#SVGID_2_)" fill="none" stroke="#010202" stroke-width="2.563" stroke-miterlimit="10" d="M419.299,313.426
		c-2.811,0-5.088-2.278-5.088-5.086c0-2.809,2.277-5.086,5.088-5.086h6.9c2.809,0,5.086,2.277,5.086,5.086
		c0,2.808-2.277,5.086-5.086,5.086H419.299z"/>
	<path clip-path="url(#SVGID_2_)" fill="#010202" d="M214.011,29.191c-2.81,0-5.086-2.276-5.086-5.086
		c0-2.808,2.276-5.085,5.086-5.085h60.553c2.809,0,5.086,2.277,5.086,5.085c0,2.81-2.277,5.086-5.086,5.086H214.011z"/>
	<path clip-path="url(#SVGID_2_)" fill="none" stroke="#010202" stroke-width="2.563" stroke-miterlimit="10" d="M214.011,29.191
		c-2.81,0-5.086-2.276-5.086-5.086c0-2.808,2.276-5.085,5.086-5.085h60.553c2.809,0,5.086,2.277,5.086,5.085
		c0,2.81-2.277,5.086-5.086,5.086H214.011z"/>
	<path clip-path="url(#SVGID_2_)" fill="#010202" d="M283.384,108.652c-2.811,0-5.087-2.275-5.087-5.086
		c0-2.809,2.276-5.085,5.087-5.085h105.265c2.807,0,5.086,2.276,5.086,5.085c0,2.811-2.279,5.086-5.086,5.086H283.384z"/>
	<path clip-path="url(#SVGID_2_)" fill="none" stroke="#010202" stroke-width="2.563" stroke-miterlimit="10" d="M283.384,108.652
		c-2.811,0-5.087-2.275-5.087-5.086c0-2.809,2.276-5.085,5.087-5.085h105.265c2.807,0,5.086,2.276,5.086,5.085
		c0,2.811-2.279,5.086-5.086,5.086H283.384z"/>
	<path clip-path="url(#SVGID_2_)" fill="#010202" d="M301.114,29.191c-2.81,0-5.086-2.276-5.086-5.086
		c0-2.808,2.276-5.085,5.086-5.085h13.606c2.809,0,5.088,2.277,5.088,5.085c0,2.81-2.279,5.086-5.088,5.086H301.114z"/>
	<path clip-path="url(#SVGID_2_)" fill="none" stroke="#010202" stroke-width="2.563" stroke-miterlimit="10" d="M301.114,29.191
		c-2.81,0-5.086-2.276-5.086-5.086c0-2.808,2.276-5.085,5.086-5.085h13.606c2.809,0,5.088,2.277,5.088,5.085
		c0,2.81-2.279,5.086-5.088,5.086H301.114z"/>
	<path clip-path="url(#SVGID_2_)" fill="#010202" d="M335.918,142.185c-2.809,0-5.084-2.277-5.084-5.086s2.275-5.086,5.084-5.086
		h27.021c2.809,0,5.086,2.277,5.086,5.086s-2.277,5.086-5.086,5.086H335.918z"/>
	<path clip-path="url(#SVGID_2_)" fill="none" stroke="#010202" stroke-width="2.563" stroke-miterlimit="10" d="M335.918,142.185
		c-2.809,0-5.084-2.277-5.084-5.086s2.275-5.086,5.084-5.086h27.021c2.809,0,5.086,2.277,5.086,5.086s-2.277,5.086-5.086,5.086
		H335.918z"/>
	<path clip-path="url(#SVGID_2_)" fill="#010202" d="M419.898,266.083c-2.811,0-5.088-2.276-5.088-5.085s2.277-5.086,5.088-5.086
		h38.195c2.811,0,5.088,2.277,5.088,5.086s-2.277,5.085-5.088,5.085H419.898z"/>
	<path clip-path="url(#SVGID_2_)" fill="none" stroke="#010202" stroke-width="2.563" stroke-miterlimit="10" d="M419.898,266.083
		c-2.811,0-5.088-2.276-5.088-5.085s2.277-5.086,5.088-5.086h38.195c2.811,0,5.088,2.277,5.088,5.086s-2.277,5.085-5.088,5.085
		H419.898z"/>
	<path clip-path="url(#SVGID_2_)" fill="#010202" d="M384.434,142.185c-2.809,0-5.086-2.277-5.086-5.086s2.277-5.086,5.086-5.086
		h8.018c2.811,0,5.086,2.277,5.086,5.086s-2.275,5.086-5.086,5.086H384.434z"/>
	<path clip-path="url(#SVGID_2_)" fill="none" stroke="#010202" stroke-width="2.563" stroke-miterlimit="10" d="M384.434,142.185
		c-2.809,0-5.086-2.277-5.086-5.086s2.277-5.086,5.086-5.086h8.018c2.811,0,5.086,2.277,5.086,5.086s-2.275,5.086-5.086,5.086
		H384.434z"/>
	<path clip-path="url(#SVGID_2_)" fill="#010202" d="M461.611,411.001l0.695-0.443c2.213-1.403,2.943-4.298,1.672-6.587l-0.15-0.247
		c-0.711-1.116-1.811-1.89-3.105-2.178c-0.873-0.194-1.764-0.15-2.592,0.12c-0.305-0.683-0.623-1.374-0.953-2.069l0.324-0.208
		c2.213-1.405,2.943-4.302,1.672-6.578c-0.047-0.087-0.098-0.172-0.152-0.257c-0.707-1.116-1.809-1.89-3.104-2.18
		c-1.195-0.266-2.414-0.083-3.475,0.505c-0.301-0.487-0.611-0.988-0.939-1.496c2.086-1.442,2.752-4.248,1.512-6.473l-0.152-0.257
		c-1.467-2.307-4.533-2.982-6.838-1.521l-0.166,0.105c-8.533-11.945-8.764-12.675-10.271-17.397
		c-0.176-0.549-0.365-1.145-0.582-1.808c-0.418-1.271-0.992-2.65-1.713-4.113l0.193-0.122c0.924-0.586,1.613-1.452,2.002-2.522
		c0.068-0.185,0.133-0.369,0.141-0.433l0.078-0.237v-0.085c0.225-1.156,0.039-2.341-0.537-3.371l-0.139-0.231
		c-0.711-1.116-1.813-1.889-3.102-2.174c-1.295-0.293-2.621-0.059-3.734,0.653l-0.109,0.07c-0.061-0.084-0.119-0.165-0.18-0.246
		c0.846-0.808,1.379-1.897,1.5-3.107l0.027-0.241c0.004-0.129,0.002-0.263-0.012-0.491c-0.006-0.16-0.014-0.322-0.039-0.488
		c-0.012-0.086-0.031-0.171-0.059-0.279c-0.047-0.229-0.104-0.458-0.178-0.662c-0.029-0.08-0.064-0.16-0.088-0.213
		c-0.072-0.185-0.148-0.368-0.238-0.525c-0.049-0.094-0.104-0.18-0.152-0.256c-0.707-1.117-1.809-1.891-3.104-2.18
		c-1.291-0.286-2.617-0.053-3.73,0.656l-0.559,0.354c-0.514-0.449-0.977-0.819-1.402-1.115l-1.273-0.891l-1.469,0.526
		c-1.004,0.367-3.064,1.131-5.6,2.175c-14.078,5.755-21.684,11.092-22.602,15.862c-0.102,0.524-0.127,1.056-0.082,1.581
		l-47.934,24.072L316.809,353h52.166c3.086,0,5.469-0.912,7.076-2.706c2.248-2.513,2.1-5.865,2.049-6.486V217.635
		c0-4.699-2.895-7.071-2.938-7.101l-9.775-9.021c-3.125-2.887-7.943-2.858-8.137-2.859h-18.541
		c4.285-9.437,6.541-19.661,6.541-29.719c0-35.954-26.594-65.925-62.097-70.289c0.128-1.766,0.191-3.439,0.191-5.081
		c0-44.46-27.862-74.333-69.334-74.333c-33.911,0-61.313,18.673-73.501,50.008h-2.383c-1.902,0-3.55,1.289-4.005,3.132
		c-0.018,0.068-1.629,6.532-2.045,12.715c-3.773,1.294-6.409,4.896-6.409,8.959c0,5.223,4.249,9.471,9.472,9.471h30.162l6.848,9.654
		l-2.574,7.294h-37.299c-5.222,0-9.469,4.248-9.469,9.472c0,2.675,1.177,5.264,3.177,7.05c0.18,2.371,0.431,4.742,0.745,7.071
		c-1.593,1.736-2.493,4.022-2.493,6.387c0,3.786,2.255,7.183,5.683,8.681c0.519,1.706,1.084,3.349,1.687,4.903
		c-1.201,2.336-1.383,5.036-0.485,7.521c1.353,3.739,4.932,6.253,8.907,6.253c1.104,0,2.188-0.19,3.221-0.564l11.233-4.062
		c-0.806,4.124-1.22,8.301-1.238,12.463c-0.194,0.121-0.381,0.248-0.561,0.38c-2.142,1.573-3.544,3.89-3.946,6.521
		c-0.322,2.124,0.036,4.247,1.018,6.115h-9.904c-1.81,0-3.282,0.561-4.377,1.67c-1.773,1.8-1.792,4.308-1.789,4.567v5.673
		c-17.973,3.403-32.194-12.062-36.079-16.808c1.157-2.809,0.625-6.04-1.445-8.313c-0.473-0.521-1.015-0.972-1.62-1.348
		c2.028-5.563,5.18-16.773,1.187-24.514c-8.968-17.385-18.108-19.542-24.195-18.268c-2,0.416-3.893,1.185-5.754,2.337l-0.81-0.941
		c-1.786-2.084-4.294-3.328-7.06-3.505c-2.722-0.174-5.382,0.723-7.473,2.516c-1.59,1.363-2.721,3.153-3.271,5.147
		c-0.148-0.016-0.298-0.028-0.446-0.036c-2.74-0.165-5.384,0.724-7.472,2.515c-2.578,2.212-3.893,5.454-3.62,8.738
		c-1.714,0.362-3.296,1.142-4.644,2.297c-3.516,3.021-4.831,7.637-3.474,11.553c-1.056,0.417-2.029,1.005-2.906,1.757
		c-2.144,1.839-3.338,4.427-3.364,7.282c-0.025,2.598,0.919,5.148,2.64,7.163L34.95,201.62c1.074,1.677,8.749,12.93,22.456,14.389
		c0.331,1.165,0.923,2.234,1.743,3.137c1.917,2.1,4.905,3.056,7.726,2.348c5.589,9.55,28.63,44.707,66.809,48.763v59.802
		l-20.505,7.781c-6.7,1.948-12.257,6.383-15.645,12.485c-3.407,6.14-4.222,13.239-2.29,19.99c0.604,2.112,1.478,4.153,2.596,6.06
		l24.854,66.509c-8.319,3.682-37.191,15.957-53.311,16.512l-1.161,0.039l-0.838,0.814c-0.289,0.283-7.014,7.081-2.936,20.338
		l0.42,1.365l1.335,0.542c0.284,0.114,2.731,1.063,6.91,1.988l0.048,0.824c0.151,2.616,2.322,4.664,4.941,4.664
		c0.098,0,0.197-0.002,0.287-0.008c1.318-0.074,2.53-0.659,3.415-1.648c0.595-0.671,0.99-1.472,1.158-2.324
		c0.748,0.067,1.506,0.126,2.271,0.175l0.022,0.385c0.151,2.616,2.321,4.668,4.943,4.668l0.287-0.01
		c1.319-0.077,2.531-0.659,3.411-1.647c0.813-0.913,1.254-2.068,1.255-3.281c0.575-0.021,1.162-0.053,1.764-0.091
		c0.245,2.523,2.371,4.473,4.928,4.473c0.098,0,0.196-0.002,0.287-0.007c2.726-0.158,4.815-2.502,4.659-5.23l-0.012-0.197
		c14.591-1.631,15.342-1.479,20.204-0.494l1.855,0.371c1.319,0.257,2.811,0.427,4.45,0.511l0.016,0.269
		c0.151,2.616,2.321,4.667,4.942,4.667c0.098,0,0.195-0.004,0.286-0.01c1.319-0.075,2.532-0.659,3.413-1.648
		c0.881-0.987,1.322-2.26,1.247-3.578l-0.008-0.132c0.106-0.013,0.213-0.024,0.318-0.039c0.548,2.155,2.499,3.729,4.799,3.729
		c0.097,0,0.194-0.003,0.285-0.008c1.318-0.074,2.531-0.66,3.413-1.648c0.881-0.988,1.323-2.259,1.247-3.581l-0.038-0.659
		c0.637-0.226,1.191-0.453,1.654-0.679l1.404-0.679l0.251-1.541c1.366-8.383,3.902-28.42-2.067-33.418
		c-1.022-0.854-2.254-1.305-3.572-1.324l-6.328-59.949l52.356-9.348c1.478,0.413,2.945,0.343,4.041,0.288
		c1.725-0.097,2.262-0.054,2.764,0.408c1.009,0.924,1.318,1.956,1.712,3.262c0.726,2.412,1.823,6.058,7.53,6.872
		c2.184,0.313,3.977,0.225,5.592,0.143c3.013-0.163,3.93-0.203,5.873,2.192c5.181,6.369,12.408,3.585,15.609,2.353
		c0.297-0.114,0.582-0.223,0.822-0.31c0.438,0.234,1.155,0.693,1.474,0.897c1.806,1.154,4.277,2.733,7.181,2.733
		c1.385,0,2.714-0.368,3.949-1.101c2.794-1.65,5.265-3.861,7.365-6.583l49.187,42.086c4.954,4.917,11.531,7.626,18.516,7.626
		c7.021,0,13.623-2.736,18.588-7.702c0.895-0.893,1.746-1.898,2.605-3.075l49.051-39.878c6.184,4.633,33.906,25.848,42.588,40.292
		l0.6,0.997l1.104,0.332c0.223,0.068,1.428,0.406,3.346,0.406c2.143,0,5.498-0.445,9.371-2.595c0.287-0.159,0.574-0.323,0.859-0.497
		c2.023-1.225,3.975-2.812,5.799-4.719l0.986-1.033l-0.178-1.423C463.203,417.708,462.846,415.123,461.611,411.001 M175.973,140.974
		h-30.528c-0.068-0.52-0.131-1.041-0.19-1.567h30.063C175.518,139.929,175.736,140.45,175.973,140.974"/>
	<path clip-path="url(#SVGID_2_)" fill="none" stroke="#010202" stroke-width="2.563" stroke-miterlimit="10" d="M461.611,411.001
		l0.695-0.443c2.213-1.403,2.943-4.298,1.672-6.587l-0.15-0.247c-0.711-1.116-1.811-1.89-3.105-2.178
		c-0.873-0.194-1.764-0.15-2.592,0.12c-0.305-0.683-0.623-1.374-0.953-2.069l0.324-0.208c2.213-1.405,2.943-4.302,1.672-6.578
		c-0.047-0.087-0.098-0.172-0.152-0.257c-0.707-1.116-1.809-1.89-3.104-2.18c-1.195-0.266-2.414-0.083-3.475,0.505
		c-0.301-0.487-0.611-0.988-0.939-1.496c2.086-1.442,2.752-4.248,1.512-6.473l-0.152-0.257c-1.467-2.307-4.533-2.982-6.838-1.521
		l-0.166,0.105c-8.533-11.945-8.764-12.675-10.271-17.397c-0.176-0.549-0.365-1.145-0.582-1.808
		c-0.418-1.271-0.992-2.65-1.713-4.113l0.193-0.122c0.924-0.586,1.613-1.452,2.002-2.522c0.068-0.185,0.133-0.369,0.141-0.433
		l0.078-0.237v-0.085c0.225-1.156,0.039-2.341-0.537-3.371l-0.139-0.231c-0.711-1.116-1.813-1.889-3.102-2.174
		c-1.295-0.293-2.621-0.059-3.734,0.653l-0.109,0.07c-0.061-0.084-0.119-0.165-0.18-0.246c0.846-0.808,1.379-1.897,1.5-3.107
		l0.027-0.241c0.004-0.129,0.002-0.263-0.012-0.491c-0.006-0.16-0.014-0.322-0.039-0.488c-0.012-0.086-0.031-0.171-0.059-0.279
		c-0.047-0.229-0.104-0.458-0.178-0.662c-0.029-0.08-0.064-0.16-0.088-0.213c-0.072-0.185-0.148-0.368-0.238-0.525
		c-0.049-0.094-0.104-0.18-0.152-0.256c-0.707-1.117-1.809-1.891-3.104-2.18c-1.291-0.286-2.617-0.053-3.73,0.656l-0.559,0.354
		c-0.514-0.449-0.977-0.819-1.402-1.115l-1.273-0.891l-1.469,0.526c-1.004,0.367-3.064,1.131-5.6,2.175
		c-14.078,5.755-21.684,11.092-22.602,15.862c-0.102,0.524-0.127,1.056-0.082,1.581l-47.934,24.072L316.809,353h52.166
		c3.086,0,5.469-0.912,7.076-2.706c2.248-2.513,2.1-5.865,2.049-6.486V217.635c0-4.699-2.895-7.071-2.938-7.101l-9.775-9.021
		c-3.125-2.887-7.943-2.858-8.137-2.859h-18.541c4.285-9.437,6.541-19.661,6.541-29.719c0-35.954-26.594-65.925-62.097-70.289
		c0.128-1.766,0.191-3.439,0.191-5.081c0-44.46-27.862-74.333-69.334-74.333c-33.911,0-61.313,18.673-73.501,50.008h-2.383
		c-1.902,0-3.55,1.289-4.005,3.132c-0.018,0.068-1.629,6.532-2.045,12.715c-3.773,1.294-6.409,4.896-6.409,8.959
		c0,5.223,4.249,9.471,9.472,9.471h30.162l6.848,9.654l-2.574,7.294h-37.299c-5.222,0-9.469,4.248-9.469,9.472
		c0,2.675,1.177,5.264,3.177,7.05c0.18,2.371,0.431,4.742,0.745,7.071c-1.593,1.736-2.493,4.022-2.493,6.387
		c0,3.786,2.255,7.183,5.683,8.681c0.519,1.706,1.084,3.349,1.687,4.903c-1.201,2.336-1.383,5.036-0.485,7.521
		c1.353,3.739,4.932,6.253,8.907,6.253c1.104,0,2.188-0.19,3.221-0.564l11.233-4.062c-0.806,4.124-1.22,8.301-1.238,12.463
		c-0.194,0.121-0.381,0.248-0.561,0.38c-2.142,1.573-3.544,3.89-3.946,6.521c-0.322,2.124,0.036,4.247,1.018,6.115h-9.904
		c-1.81,0-3.282,0.561-4.377,1.67c-1.773,1.8-1.792,4.308-1.789,4.567v5.673c-17.973,3.403-32.194-12.062-36.079-16.808
		c1.157-2.809,0.625-6.04-1.445-8.313c-0.473-0.521-1.015-0.972-1.62-1.348c2.028-5.563,5.18-16.773,1.187-24.514
		c-8.968-17.385-18.108-19.542-24.195-18.268c-2,0.416-3.893,1.185-5.754,2.337l-0.81-0.941c-1.786-2.084-4.294-3.328-7.06-3.505
		c-2.722-0.174-5.382,0.723-7.473,2.516c-1.59,1.363-2.721,3.153-3.271,5.147c-0.148-0.016-0.298-0.028-0.446-0.036
		c-2.74-0.165-5.384,0.724-7.472,2.515c-2.578,2.212-3.893,5.454-3.62,8.738c-1.714,0.362-3.296,1.142-4.644,2.297
		c-3.516,3.021-4.831,7.637-3.474,11.553c-1.056,0.417-2.029,1.005-2.906,1.757c-2.144,1.839-3.338,4.427-3.364,7.282
		c-0.025,2.598,0.919,5.148,2.64,7.163L34.95,201.62c1.074,1.677,8.749,12.93,22.456,14.389c0.331,1.165,0.923,2.234,1.743,3.137
		c1.917,2.1,4.905,3.056,7.726,2.348c5.589,9.55,28.63,44.707,66.809,48.763v59.802l-20.505,7.781
		c-6.7,1.948-12.257,6.383-15.645,12.485c-3.407,6.14-4.222,13.239-2.29,19.99c0.604,2.112,1.478,4.153,2.596,6.06l24.854,66.509
		c-8.319,3.682-37.191,15.957-53.311,16.512l-1.161,0.039l-0.838,0.814c-0.289,0.283-7.014,7.081-2.936,20.338l0.42,1.365
		l1.335,0.542c0.284,0.114,2.731,1.063,6.91,1.988l0.048,0.824c0.151,2.616,2.322,4.664,4.941,4.664
		c0.098,0,0.197-0.002,0.287-0.008c1.318-0.074,2.53-0.659,3.415-1.648c0.595-0.671,0.99-1.472,1.158-2.324
		c0.748,0.067,1.506,0.126,2.271,0.175l0.022,0.385c0.151,2.616,2.321,4.668,4.943,4.668l0.287-0.01
		c1.319-0.077,2.531-0.659,3.411-1.647c0.813-0.913,1.254-2.068,1.255-3.281c0.575-0.021,1.162-0.053,1.764-0.091
		c0.245,2.523,2.371,4.473,4.928,4.473c0.098,0,0.196-0.002,0.287-0.007c2.726-0.158,4.815-2.502,4.659-5.23l-0.012-0.197
		c14.591-1.631,15.342-1.479,20.204-0.494l1.855,0.371c1.319,0.257,2.811,0.427,4.45,0.511l0.016,0.269
		c0.151,2.616,2.321,4.667,4.942,4.667c0.098,0,0.195-0.004,0.286-0.01c1.319-0.075,2.532-0.659,3.413-1.648
		c0.881-0.987,1.322-2.26,1.247-3.578l-0.008-0.132c0.106-0.013,0.213-0.024,0.318-0.039c0.548,2.155,2.499,3.729,4.799,3.729
		c0.097,0,0.194-0.003,0.285-0.008c1.318-0.074,2.531-0.66,3.413-1.648c0.881-0.988,1.323-2.259,1.247-3.581l-0.038-0.659
		c0.637-0.226,1.191-0.453,1.654-0.679l1.404-0.679l0.251-1.541c1.366-8.383,3.902-28.42-2.067-33.418
		c-1.022-0.854-2.254-1.305-3.572-1.324l-6.328-59.949l52.356-9.348c1.478,0.413,2.945,0.343,4.041,0.288
		c1.725-0.097,2.262-0.054,2.764,0.408c1.009,0.924,1.318,1.956,1.712,3.262c0.726,2.412,1.823,6.058,7.53,6.872
		c2.184,0.313,3.977,0.225,5.592,0.143c3.013-0.163,3.93-0.203,5.873,2.192c5.181,6.369,12.408,3.585,15.609,2.353
		c0.297-0.114,0.582-0.223,0.822-0.31c0.438,0.234,1.155,0.693,1.474,0.897c1.806,1.154,4.277,2.733,7.181,2.733
		c1.385,0,2.714-0.368,3.949-1.101c2.794-1.65,5.265-3.861,7.365-6.583l49.187,42.086c4.954,4.917,11.531,7.626,18.516,7.626
		c7.021,0,13.623-2.736,18.588-7.702c0.895-0.893,1.746-1.898,2.605-3.075l49.051-39.878c6.184,4.633,33.906,25.848,42.588,40.292
		l0.6,0.997l1.104,0.332c0.223,0.068,1.428,0.406,3.346,0.406c2.143,0,5.498-0.445,9.371-2.595c0.287-0.159,0.574-0.323,0.859-0.497
		c2.023-1.225,3.975-2.812,5.799-4.719l0.986-1.033l-0.178-1.423C463.203,417.708,462.846,415.123,461.611,411.001z
		 M175.973,140.974h-30.528c-0.068-0.52-0.131-1.041-0.19-1.567h30.063C175.518,139.929,175.736,140.45,175.973,140.974z"/>
	<path clip-path="url(#SVGID_2_)" fill="#626467" d="M75.148,482.557c0,0,0.163,3.755,0.422,3.723
		c0.258-0.03,3.237,1.071,3.237,1.071s1.717-1.911,1.781-2.105c0.065-0.195,0.227-2.268,0.227-2.268L75.148,482.557z"/>
	<path clip-path="url(#SVGID_2_)" fill="#626467" d="M87.714,483.675c0.032,0.242,0.356,3.545,0.485,3.675
		c0.13,0.13,2.688,1.295,2.688,1.295l2.072-2.366l-0.356-3.106L87.714,483.675z"/>
	<path clip-path="url(#SVGID_2_)" fill="#626467" d="M98.983,483.464l1.068,3.4c0,0,2.009,1.328,2.171,1.295
		c0.162-0.032,2.542-2.25,2.542-2.25l-0.47-2.737L98.983,483.464z"/>
	<polygon clip-path="url(#SVGID_2_)" fill="#626467" points="135.578,482.75 139.983,482.75 140.309,486.023 137.942,488.161 
		135.773,486.443 	"/>
	<path clip-path="url(#SVGID_2_)" fill="#626467" d="M145.877,482.168c0.195,0.389,0,2.85,0,2.85l2.655,1.296l2.072-2.155
		l0.259-2.896L145.877,482.168z"/>
	<polygon clip-path="url(#SVGID_2_)" fill="#626467" points="421.123,344.502 425.502,343.199 427.086,344.88 425.641,348.135 
		424.008,348.508 	"/>
	<polygon clip-path="url(#SVGID_2_)" fill="#626467" points="427.457,352.466 430.572,350.93 432.814,352.18 432.814,354.422 
		430.137,356.705 	"/>
	<path clip-path="url(#SVGID_2_)" fill="#626467" d="M445.115,384.794l3.58-1.8l2.422,1.469l-0.699,2.453
		c0,0-2.889,1.924-2.98,1.784C447.344,388.561,445.115,384.794,445.115,384.794"/>
	<polygon clip-path="url(#SVGID_2_)" fill="#626467" points="451.768,394.084 454.004,392.846 456.277,393.465 456.938,395.498 
		453.816,398.62 	"/>
	<path clip-path="url(#SVGID_2_)" fill="#626467" d="M457.17,404.947c0.328-0.177,2.465-1.437,2.465-1.437l2.754,2.144l-1.584,2.703
		l-2.098,1.488L457.17,404.947z"/>
	<polygon clip-path="url(#SVGID_2_)" fill="#626467" points="185.431,158.354 183.828,177.141 197.87,156.061 	"/>
	<path clip-path="url(#SVGID_2_)" fill="#626467" d="M320.328,221.291c0,0,30.74-40.996,17.982-70.087
		c-12.758-29.09-38.555-58.6-80.039-46.671c-41.487,11.927-49.639,51.098-49.279,54.935c0.36,3.836-2.314,43.594,29.273,63.99
		c0,0,5.139-1.901,17.586-2.42C268.297,220.519,320.328,221.291,320.328,221.291"/>
	<polygon clip-path="url(#SVGID_2_)" fill="#626467" points="177.126,162.089 171.825,198.74 162.866,189.655 158.014,186.768 
		159.396,168.076 	"/>
	<polygon clip-path="url(#SVGID_2_)" fill="#626467" points="176.235,170.475 182.427,201.799 171.825,201.799 	"/>
	<path clip-path="url(#SVGID_2_)" fill="#626467" d="M205.08,164.67c0,0-14.569,26.65-15.779,37.533l19.691-0.405l-2.415-38.461
		L205.08,164.67z"/>
	<path clip-path="url(#SVGID_2_)" fill="#FAB832" d="M242.724,221.291h70.699l4.892,10.775l-11.891,1.981l-63.7-1.873
		C242.724,232.174,234.35,226.7,242.724,221.291"/>
	<path clip-path="url(#SVGID_2_)" fill="#FAB832" d="M158.446,188.224c0,0,3.634-0.327,6.111,3.177
		c2.478,3.505,7.268,10.397,7.268,10.397l-15.228,1.065l-4.592-7.978C152.006,194.886,152.54,188.637,158.446,188.224"/>
	<path clip-path="url(#SVGID_2_)" fill="#626467" d="M135.147,333.721l-29.026,11.585l-8.003,15.439l4.833,16.959
		c0,0,9.985,9.676,21.749,7.248c11.764-2.427,70.227-12.426,70.227-12.426l2.123-21.736l-34.704-1.117h-11.371L135.147,333.721z"/>
	<path clip-path="url(#SVGID_2_)" fill="#626467" d="M275.21,353.879l36.344-1.7l33.163,42.018c0,0,12.965,21.661,0,32.052
		c-12.967,10.392-23.359,8.447-39.045-5.973c-15.687-14.417-42.356-36.997-42.356-36.997L275.21,353.879z"/>
	<path clip-path="url(#SVGID_2_)" fill="#626467" d="M91.429,185.492c0,0,6.641-16.758-2.302-30.45s-23.269-7.265-23.269-7.265
		s-6.094-8.525-12.133-2.425c-6.043,6.102-2.105,8.523-2.105,8.523s-5.378-4.642-8.957-3.062c-1.894,0.837-1.346,6.752-3.476,8.713
		c-2.296,2.113-7.846,1.532-8.689,5.065c-1.418,5.941,1.738,10.275,1.738,10.275s-4.789-0.262-6.744,2.277
		c-1.956,2.54-3.124,4.501,10.426,18.407l5.704,7.709c0,0,10.736,9.881,18.521,9.065L91.429,185.492z"/>
	<path clip-path="url(#SVGID_2_)" fill="#626467" d="M185.321,328.428c0,0,15.789,2.228,24.032,0
		c8.242-2.229,17.187-1.67,17.187-1.67l35.627,19.282l2.725,2.724c0,0,0.808,21.01-2.725,29.899
		c-3.532,8.892-10.392,12.576-12.601,12.191c-2.21-0.384-8.496-2.518-8.496-2.518l-9.222,1.686l-7.717-5.595
		c0,0-12.264-1.76-12.544-2.12c-0.278-0.361-6.007-8.939-6.007-8.939l-9.64-1.69c0,0-5.451-9.012,2.932-22.006l3.076-4.366
		C201.949,345.306,178.615,342.95,185.321,328.428"/>
	<path clip-path="url(#SVGID_2_)" fill="#FAB832" d="M89.156,186.793l-27.999,25.021c0,0,0.973,6.443,6.164,5.774
		c5.191-0.67,27.03-23.718,27.03-23.718S96.525,186.279,89.156,186.793"/>
	<path clip-path="url(#SVGID_2_)" fill="#FAB832" d="M234.584,321.169l32.837,16.925c0,0,4.214,6.041-2.273,9.198l-37.071-18.864
		C228.076,328.428,225.437,321.27,234.584,321.169"/>
	<path clip-path="url(#SVGID_2_)" fill="#FFFFFF" d="M66.628,474.653c0,0,22.651,5.411,37.516,2.655
		c14.864-2.758,26.414-0.169,26.414-0.169s21.924-1.065,23.676-2.486l-1.689,5.799c0,0-10.815,2.724-16.894,2.584
		c-6.077-0.14-18.373-2.095-18.373-2.095s-18.561,3.486-23.474,2.735s-26.121-3.854-26.121-3.854L66.628,474.653z"/>
	<path clip-path="url(#SVGID_2_)" fill="#FFFFFF" d="M414.309,345.251l4.037-2.351c0,0,9.6,11.085,12.215,17.031
		c2.617,5.947,6.631,16.093,13.037,23.062c6.412,6.97,15.199,25.316,15.418,32.805c0.221,7.488-1.836,5.066-1.836,5.066
		l-1.781-0.589c0,0-9.668-26.763-19.873-39.662s-8.654-17.817-8.654-17.817l-12.932-17.038L414.309,345.251z"/>
	<path clip-path="url(#SVGID_2_)" fill="#FFFFFF" d="M98.119,456.129l5.814-2.476l7.476,12.406c0,0-0.503,4.331-5.246,3.913
		L98.119,456.129z"/>
	<path clip-path="url(#SVGID_2_)" fill="#FFFFFF" d="M109.058,452.209l7.862,12.804c0,0,4.34,0.724,4.898-2.852l-6.928-12.23
		L109.058,452.209z"/>
	<path clip-path="url(#SVGID_2_)" fill="#FFFFFF" d="M119.631,448.108l7.116,12.852c0,0,5.48,1.649,5.69-3.051l-7.196-12.597
		L119.631,448.108z"/>
	<path clip-path="url(#SVGID_2_)" fill="#FFFFFF" d="M402.334,384.428l7.131-12.384c0,0,5.871,0.052,5.082,3.34l-7.678,12.954
		l-4.314-3.544L402.334,384.428z"/>
	<path clip-path="url(#SVGID_2_)" fill="#FFFFFF" d="M410.859,391.206l7.486-12.541c0,0,4.604,0.473,4.836,3.644l-7.346,12.86
		L410.859,391.206z"/>
	<path clip-path="url(#SVGID_2_)" fill="#FFFFFF" d="M419.994,398.789l7.512-12.771c0,0,3.957,0.138,4.768,2.856l-7.76,14.004
		L419.994,398.789z"/>
	<path clip-path="url(#SVGID_2_)" fill="#FFFFFF" d="M103.934,381.04l6.846,18.515l31.339-5.357l-2.486-9.943
		C139.632,384.253,107.566,384.673,103.934,381.04"/>
	<polygon clip-path="url(#SVGID_2_)" fill="#FFFFFF" points="114.623,409.333 142.642,404.256 143.382,410.592 116.369,415.481 	"/>
	<polygon clip-path="url(#SVGID_2_)" fill="#FFFFFF" points="119.513,425.471 144.504,419.981 149.203,455.47 131.287,456.723 
		124.124,440.771 	"/>
	<path clip-path="url(#SVGID_2_)" fill="#FFFFFF" d="M344.717,385.995c0,0.365,6.605,34.282,6.605,34.282
		s14.17-12.259,14.316-12.627c0.146-0.367-14.889-25.343-14.889-25.343L344.717,385.995z"/>
	<polygon clip-path="url(#SVGID_2_)" fill="#FFFFFF" points="360.646,378.665 373.4,401.292 378.695,397.178 365.639,375.384 	"/>
	<polygon clip-path="url(#SVGID_2_)" fill="#FFFFFF" points="375.254,370.725 375.254,372.414 386.17,391.939 408.611,373.21 
		398.746,358.098 	"/>
	<path clip-path="url(#SVGID_2_)" fill="#FFFFFF" d="M249.565,236.053c0,0,10.204,42.41-12.852,84.394l30.707,17.647
		c0,0,45.148-21.064,46.286-94.214L249.565,236.053z"/>
	<path clip-path="url(#SVGID_2_)" fill="#FFFFFF" d="M93.376,194.886c0,0,27.398,27.905,44.218,17.862v54.602
		c0,0-49.705-6.651-68.785-49.454L93.376,194.886z"/>
	<path clip-path="url(#SVGID_2_)" fill="#FAB832" d="M138.69,204.881l76.847-2.44l20.051,22.366c0,0,3.221,8.131,12.675,8.822
		c0,0,11.49,61.895-12.002,85.818c0,0-8.257-0.887-9.339,6.566l-26.232,4.284l-16.197-2.796l-2.245,6.219l5.59,8.126l12.668,4.552
		l-7.164,4.392l-38.852-1.491l-15.799-12.876V204.881z"/>
	<path clip-path="url(#SVGID_2_)" fill="#FAB832" d="M339.48,202.44l-21.609,28.371l-4.846,20.498c0,0-2.234,48.064-19.747,67.812
		c-17.513,19.746-19.271,25.081-19.271,25.081l5.484,5.471h90.127l4.115-5.596V215.726l-14.162-13.286H339.48z"/>
	<path clip-path="url(#SVGID_2_)" fill="#FAB832" d="M208.992,158.354c0,0-17.23,26.505-21.11,43.063l-5.455,0.381
		c0,0-9.671-23.777-4.836-40.961l7.291-2.483c0,0-2.718,11.42-0.571,21.723l13.56-24.016L208.992,158.354z"/>
	<polygon clip-path="url(#SVGID_2_)" fill="#FAB832" points="110.346,399.565 142.117,394.197 142.642,404.255 114.325,409.693 	"/>
	<polygon clip-path="url(#SVGID_2_)" fill="#FAB832" points="116.921,415.298 143.382,410.069 144.504,419.981 118.955,424.586 	"/>
	<polygon clip-path="url(#SVGID_2_)" fill="#FAB832" points="350.752,382.307 366.26,408.424 373.734,401.859 360.041,378.665 	"/>
	<polygon clip-path="url(#SVGID_2_)" fill="#FAB832" points="366.609,375.801 378.695,397.177 386.168,391.24 374.502,371.679 	"/>
	<path clip-path="url(#SVGID_2_)" fill="#FAB832" d="M69.433,462.162l28.687-6.031l8.477,13.489h3.75l1.172-2.645l-6.95-13.321
		l4.49-1.444l7.384,12.243l3.463,0.974l2.097-2.266l-7.109-13.229l4.739-1.824l7.116,12.852l3.811,0.365l2.29-3.417l16.891-1.596
		l-0.666-8.204l2.552,0.64c0,0,3.737,2.949,3.737,13.414s-1.734,12.2-1.734,12.2s-9.385,4.207-29.713,1.511
		c0,0-13.148,0.458-33.754,2.041c-20.604,1.584-24.854-5.287-24.854-5.287L69.433,462.162z"/>
	<path clip-path="url(#SVGID_2_)" fill="#FAB832" d="M391.891,361.225c-0.047,0.354,7.631-2.527,7.631-2.527l9.09,14.104
		l-9.373,8.966l3.096,3.449l7.518-14.377c0,0,4.822,2.435,4.695,4.545l-7.107,12.68l3.82,3.119l7.139-11.429
		c0,0,4.381-0.813,3.846,2.221l-5.906,13.157l3.656,3.655l7.512-12.771c0,0,4.893,0.255,4.768,2.856l-8.01,14.518l17.986,18.97
		l1.691,2.348l8.547-0.97l2.91-2.223c0,0-3.568-20.425-19.723-39.749c0,0-5.789-8.803-9.75-19.229
		c-3.959-10.423-12.367-17.658-12.367-17.658S392.9,353.524,391.891,361.225"/>
	<path clip-path="url(#SVGID_2_)" fill="#FAB832" d="M276.457,101.883c0.689,0,1.37,0.031,2.053,0.052
		c0.328-2.746,0.51-5.537,0.51-8.371c0-38.664-22.924-70.009-65.01-70.009c-38.664,0-70.043,26.382-75.005,70.009
		c-0.101,0.877,0.017,1.762,0.049,2.636l29.224-0.296l12.138,17.909l-2.62,18.25c2.171,13.603,13.958,23.997,28.173,23.997
		c1.228,0,2.436-0.085,3.622-0.237C216.233,124.993,243.641,101.883,276.457,101.883"/>
	<path clip-path="url(#SVGID_2_)" fill="#010202" d="M211.394,152.613c-1.765,0.378-3.578,0.589-5.426,0.589
		c-12.551,0-23.114-8.88-25.28-21.172l2.715-18.904l-13.618-20.098l-27.872,0.284c4.801-40.039,33.71-66.896,72.1-66.896
		c19.096,0,35.047,6.749,46.126,19.519c10.333,11.911,16.022,28.824,16.022,47.63c0,2.997-0.212,5.955-0.597,8.878
		c1.92,0.127,3.814,0.334,5.681,0.634c0.406-3.134,0.637-6.303,0.637-9.512c0-43.585-27.276-72.867-67.869-72.867
		c-41.628,0-72.913,29.154-77.849,72.543c-0.101,0.885-0.051,1.695-0.003,2.41c0.013,0.22,0.027,0.438,0.035,0.657l0.103,2.782
		l30.474-0.311l10.656,15.723l-2.525,17.584l0.068,0.43c2.442,15.301,15.479,26.406,30.997,26.406c1.576,0,3.136-0.117,4.667-0.344
		C210.791,156.56,211.046,154.571,211.394,152.613"/>
	<path clip-path="url(#SVGID_2_)" fill="none" stroke="#010202" stroke-width="2.563" stroke-miterlimit="10" d="M211.394,152.613
		c-1.765,0.378-3.578,0.589-5.426,0.589c-12.551,0-23.114-8.88-25.28-21.172l2.715-18.904l-13.618-20.098l-27.872,0.284
		c4.801-40.039,33.71-66.896,72.1-66.896c19.096,0,35.047,6.749,46.126,19.519c10.333,11.911,16.022,28.824,16.022,47.63
		c0,2.997-0.212,5.955-0.597,8.878c1.92,0.127,3.814,0.334,5.681,0.634c0.406-3.134,0.637-6.303,0.637-9.512
		c0-43.585-27.276-72.867-67.869-72.867c-41.628,0-72.913,29.154-77.849,72.543c-0.101,0.885-0.051,1.695-0.003,2.41
		c0.013,0.22,0.027,0.438,0.035,0.657l0.103,2.782l30.474-0.311l10.656,15.723l-2.525,17.584l0.068,0.43
		c2.442,15.301,15.479,26.406,30.997,26.406c1.576,0,3.136-0.117,4.667-0.344C210.791,156.56,211.046,154.571,211.394,152.613z"/>
	<polygon clip-path="url(#SVGID_2_)" fill="#FFFFFF" points="138.388,74.928 147.807,75.554 147.807,89.386 137.292,89.386 	"/>
	<path clip-path="url(#SVGID_2_)" fill="#010202" d="M149.642,92.431h-13.465c-1.387,0-2.54-1.063-2.657-2.444
		c-0.563-6.759,1.914-16.836,2.02-17.261c0.295-1.189,1.363-2.023,2.588-2.023h9.38c0.737,0,1.44,0.305,1.944,0.841
		c0.504,0.535,0.764,1.257,0.718,1.991c-0.606,9.705,1.851,15.022,1.874,15.074c0.392,0.826,0.336,1.803-0.153,2.574
		C151.402,91.956,150.556,92.431,149.642,92.431 M138.775,87.099h7.178c-0.638-2.519-1.26-6.238-1.21-11.064h-4.483
		C139.717,78.612,138.869,83.198,138.775,87.099"/>
	<path clip-path="url(#SVGID_2_)" fill="none" stroke="#010202" stroke-width="2.563" stroke-miterlimit="10" d="M149.642,92.431
		h-13.465c-1.387,0-2.54-1.063-2.657-2.444c-0.563-6.759,1.914-16.836,2.02-17.261c0.295-1.189,1.363-2.023,2.588-2.023h9.38
		c0.737,0,1.44,0.305,1.944,0.841c0.504,0.535,0.764,1.257,0.718,1.991c-0.606,9.705,1.851,15.022,1.874,15.074
		c0.392,0.826,0.336,1.803-0.153,2.574C151.402,91.956,150.556,92.431,149.642,92.431z M138.775,87.099h7.178
		c-0.638-2.519-1.26-6.238-1.21-11.064h-4.483C139.717,78.612,138.869,83.198,138.775,87.099z"/>
	<path clip-path="url(#SVGID_2_)" fill="#010202" d="M201.208,138.587l-9.063-10.851c-0.652-0.78-1.617-1.232-2.634-1.232h-8.385
		l4.825-13.669c0.371-1.052,0.207-2.219-0.438-3.129l-12.52-17.646c-0.645-0.906-1.687-1.445-2.8-1.445H135.14
		c-1.896,0-3.433,1.536-3.433,3.432s1.536,3.433,3.433,3.433h33.282l10.465,14.749l-5.039,14.276h-41.571
		c-1.894,0-3.432,1.536-3.432,3.432c0,1.734,1.291,3.152,2.96,3.384c0.15,3.137,0.53,8.134,1.493,13.734
		c-1.7,0.204-3.021,1.634-3.021,3.39c0,1.896,1.536,3.432,3.432,3.432h1.022c0.968,3.853,2.25,7.741,3.938,11.319
		c-1.648,0.716-2.488,2.588-1.868,4.301c0.505,1.397,1.822,2.267,3.228,2.267c0.389,0,0.782-0.066,1.168-0.205l49.482-17.885
		c0.03-0.012,0.058-0.03,0.089-0.042c0.082-0.032,0.16-0.073,0.242-0.113c0.122-0.06,0.241-0.121,0.352-0.194
		c0.071-0.046,0.138-0.094,0.205-0.144c0.121-0.092,0.234-0.189,0.342-0.294c0.033-0.034,0.073-0.057,0.105-0.093l9.062-9.657
		C202.262,141.871,202.319,139.917,201.208,138.587 M145.141,162.833c-1.368-2.782-2.451-5.849-3.309-8.958h28.09L145.141,162.833z
		 M188.025,147.012h-47.753c-1.001-5.468-1.413-10.482-1.582-13.644h37.572h0.014h0.014h11.615l6.086,7.284L188.025,147.012z"/>
	<path clip-path="url(#SVGID_2_)" fill="none" stroke="#010202" stroke-width="2.563" stroke-miterlimit="10" d="M201.208,138.587
		l-9.063-10.851c-0.652-0.78-1.617-1.232-2.634-1.232h-8.385l4.825-13.669c0.371-1.052,0.207-2.219-0.438-3.129l-12.52-17.646
		c-0.645-0.906-1.687-1.445-2.8-1.445H135.14c-1.896,0-3.433,1.536-3.433,3.432s1.536,3.433,3.433,3.433h33.282l10.465,14.749
		l-5.039,14.276h-41.571c-1.894,0-3.432,1.536-3.432,3.432c0,1.734,1.291,3.152,2.96,3.384c0.15,3.137,0.53,8.134,1.493,13.734
		c-1.7,0.204-3.021,1.634-3.021,3.39c0,1.896,1.536,3.432,3.432,3.432h1.022c0.968,3.853,2.25,7.741,3.938,11.319
		c-1.648,0.716-2.488,2.588-1.868,4.301c0.505,1.397,1.822,2.267,3.228,2.267c0.389,0,0.782-0.066,1.168-0.205l49.482-17.885
		c0.03-0.012,0.058-0.03,0.089-0.042c0.082-0.032,0.16-0.073,0.242-0.113c0.122-0.06,0.241-0.121,0.352-0.194
		c0.071-0.046,0.138-0.094,0.205-0.144c0.121-0.092,0.234-0.189,0.342-0.294c0.033-0.034,0.073-0.057,0.105-0.093l9.062-9.657
		C202.262,141.871,202.319,139.917,201.208,138.587z M145.141,162.833c-1.368-2.782-2.451-5.849-3.309-8.958h28.09L145.141,162.833z
		 M188.025,147.012h-47.753c-1.001-5.468-1.413-10.482-1.582-13.644h37.572h0.014h0.014h11.615l6.086,7.284L188.025,147.012z"/>
	<path clip-path="url(#SVGID_2_)" fill="#010202" d="M140.027,176.337c-3.361,0-6.389-2.124-7.53-5.287
		c-0.855-2.369-0.516-4.899,0.725-6.911c-0.77-1.919-1.473-3.963-2.104-6.118c-3.147-1.079-5.417-4.068-5.417-7.577
		c0-2.304,0.986-4.403,2.579-5.869c-0.443-3.125-0.715-5.969-0.882-8.313c-1.91-1.477-3.127-3.785-3.127-6.325
		c0-4.414,3.592-8.007,8.006-8.007h38.334l3.172-8.987l-7.725-10.889h-30.919c-4.416,0-8.007-3.593-8.007-8.008
		c0-4.414,3.591-8.006,8.007-8.006h35.056c2.591,0,5.032,1.261,6.531,3.373l12.52,17.646c1.504,2.121,1.885,4.85,1.021,7.298
		l-2.672,7.572h1.917c2.38,0,4.619,1.047,6.146,2.874l9.063,10.852c2.59,3.104,2.458,7.664-0.309,10.611l-9.465,10.041
		c-0.199,0.186-0.406,0.358-0.623,0.522c-0.172,0.129-0.329,0.242-0.495,0.348c-0.26,0.165-0.537,0.318-0.826,0.459
		c-0.101,0.049-0.197,0.095-0.292,0.138l-0.494,0.206l-49.466,17.88C141.876,176.177,140.959,176.337,140.027,176.337
		 M144.165,142.436h41.878l1.839-1.958l-2.116-2.534h-42.14C143.764,139.336,143.94,140.847,144.165,142.436"/>
	<path clip-path="url(#SVGID_2_)" fill="none" stroke="#010202" stroke-width="2.563" stroke-miterlimit="10" d="M140.027,176.337
		c-3.361,0-6.389-2.124-7.53-5.287c-0.855-2.369-0.516-4.899,0.725-6.911c-0.77-1.919-1.473-3.963-2.104-6.118
		c-3.147-1.079-5.417-4.068-5.417-7.577c0-2.304,0.986-4.403,2.579-5.869c-0.443-3.125-0.715-5.969-0.882-8.313
		c-1.91-1.477-3.127-3.785-3.127-6.325c0-4.414,3.592-8.007,8.006-8.007h38.334l3.172-8.987l-7.725-10.889h-30.919
		c-4.416,0-8.007-3.593-8.007-8.008c0-4.414,3.591-8.006,8.007-8.006h35.056c2.591,0,5.032,1.261,6.531,3.373l12.52,17.646
		c1.504,2.121,1.885,4.85,1.021,7.298l-2.672,7.572h1.917c2.38,0,4.619,1.047,6.146,2.874l9.063,10.852
		c2.59,3.104,2.458,7.664-0.309,10.611l-9.465,10.041c-0.199,0.186-0.406,0.358-0.623,0.522c-0.172,0.129-0.329,0.242-0.495,0.348
		c-0.26,0.165-0.537,0.318-0.826,0.459c-0.101,0.049-0.197,0.095-0.292,0.138l-0.494,0.206l-49.466,17.88
		C141.876,176.177,140.959,176.337,140.027,176.337z M144.165,142.436h41.878l1.839-1.958l-2.116-2.534h-42.14
		C143.764,139.336,143.94,140.847,144.165,142.436z"/>
	<path clip-path="url(#SVGID_2_)" fill="#626467" d="M201.208,138.587l-9.063-10.851c-0.652-0.78-1.617-1.232-2.634-1.232h-8.385
		l4.825-13.669c0.371-1.052,0.207-2.219-0.438-3.129l-12.52-17.646c-0.645-0.906-1.687-1.445-2.8-1.445H135.14
		c-1.896,0-3.433,1.536-3.433,3.432s1.536,3.433,3.433,3.433h33.282l10.465,14.749l-5.039,14.276h-41.571
		c-1.894,0-3.432,1.536-3.432,3.432c0,1.734,1.291,3.152,2.96,3.384c0.15,3.137,0.53,8.134,1.493,13.734
		c-1.7,0.204-3.021,1.634-3.021,3.39c0,1.896,1.536,3.432,3.432,3.432h1.022c0.968,3.853,2.25,7.741,3.938,11.319
		c-1.648,0.716-2.488,2.588-1.868,4.301c0.505,1.397,1.822,2.267,3.228,2.267c0.389,0,0.782-0.066,1.168-0.205l49.482-17.885
		c0.03-0.012,0.058-0.03,0.089-0.042c0.082-0.032,0.16-0.073,0.242-0.113c0.122-0.06,0.241-0.121,0.352-0.194
		c0.071-0.046,0.138-0.094,0.205-0.144c0.121-0.092,0.234-0.189,0.342-0.294c0.033-0.034,0.073-0.057,0.105-0.093l9.062-9.657
		C202.262,141.871,202.319,139.917,201.208,138.587 M145.141,162.833c-1.368-2.782-2.451-5.849-3.309-8.958h28.09L145.141,162.833z
		 M188.025,147.012h-47.753c-1.001-5.468-1.413-10.482-1.582-13.644h37.572h0.014h0.014h11.615l6.086,7.284L188.025,147.012z"/>
	<path clip-path="url(#SVGID_2_)" fill="#FFFFFF" d="M140.65,150.072h49.605l7.286-7.764l-1.598-1.597l-7.286,7.763h-48.296
		c0.024,0.135,0.044,0.265,0.069,0.399L140.65,150.072z"/>
	<path clip-path="url(#SVGID_2_)" fill="#FFFFFF" d="M180.654,129.564h10.455c0.279,0,0.551,0.063,0.801,0.174l-0.888-1.063
		c-0.376-0.45-0.928-0.707-1.512-0.707h-8.293L180.654,129.564z"/>
	<path clip-path="url(#SVGID_2_)" fill="#FFFFFF" d="M146.003,166.251l33.87-12.242h-6.017l-28.742,10.388
		c0.104,0.224,0.204,0.463,0.311,0.679L146.003,166.251z"/>
	<path clip-path="url(#SVGID_2_)" fill="#FFFFFF" d="M134.83,95.952c-0.018-0.104-0.063-0.199-0.063-0.308
		c0-1.086,0.883-1.97,1.969-1.97h35.056c0.221,0,0.434,0.05,0.639,0.121l-0.631-0.888c-0.367-0.521-0.969-0.83-1.606-0.83H135.14
		c-1.086,0-1.97,0.883-1.97,1.969C133.17,95.021,133.896,95.798,134.83,95.952"/>
	<path clip-path="url(#SVGID_2_)" fill="#FFFFFF" d="M131.906,131.534c0-1.085,0.883-1.97,1.969-1.97h42.604l5.771-16.381
		l-3.91-4.232l2.179,3.049l-5.636,15.968h-42.606c-1.084,0-1.968,0.883-1.968,1.969c0,0.955,0.712,1.771,1.658,1.923
		C131.948,131.75,131.906,131.647,131.906,131.534"/>
	<path clip-path="url(#SVGID_2_)" fill="#FFFFFF" d="M140.848,168.133l1.385-0.6l-0.644-1.366
		c-1.511-3.201-2.804-6.919-3.842-11.053l-0.277-1.105h-1.186c1.017,3.933,2.259,7.489,3.708,10.562l0.646,1.364l-1.388,0.601
		c-0.951,0.415-1.423,1.496-1.073,2.462c0.243,0.675,0.862,1.134,1.544,1.254C139.579,169.383,140.007,168.5,140.848,168.133"/>
	<path clip-path="url(#SVGID_2_)" fill="#FFFFFF" d="M133.336,152.041c0-0.985,0.745-1.818,1.734-1.937l1.527-0.186l-0.26-1.516
		c-0.945-5.5-1.323-10.407-1.474-13.556l-0.059-1.214l-1.202-0.166c-0.119-0.016-0.221-0.072-0.331-0.108
		c0.153,3.151,0.532,8.006,1.468,13.446l0.262,1.518l-1.529,0.185c-0.988,0.117-1.733,0.951-1.733,1.937
		c0,0.977,0.727,1.752,1.66,1.905C133.381,152.247,133.336,152.151,133.336,152.041"/>
	<path clip-path="url(#SVGID_2_)" fill="#010202" d="M314.809,144.683c-0.003-6.781-3.896-11.831-10.43-13.515
		c-4.256-1.081-8.613-1.937-12.954-2.539c-0.277-0.038-0.536-0.055-0.785-0.055c-1.03,0-2.003,0.295-2.818,0.841
		c-0.856-0.86-2.009-1.435-3.324-1.541c-4.187-0.331-8.387-0.443-12.623-0.325c-4.545,0.138-8.038,2.18-9.938,5.525
		c-0.083-0.111-0.144-0.238-0.233-0.345c-1.216-1.443-3.466-3.163-7.27-3.163c-0.894,0-1.843,0.098-2.837,0.294
		c-1.923,0.391-3.865,0.835-5.788,1.325c-6.485,1.674-10.358,6.72-10.363,13.499v13.437c-0.003,1.288,0.344,2.431,0.953,3.36h-0.008
		l7.36,13.184c-1.495,0.409-2.994,0.838-4.466,1.305c-2.325,0.74-3.834,2.792-3.84,5.238v3.251c0.002,3.416,1.008,5.792,2.507,7.368
		l8.921,9.416c0.016,0.019,0.035,0.034,0.052,0.054l0.326,0.345l0.001-0.002c1.276,1.236,2.982,1.753,4.631,1.753
		c0.857,0,1.795-0.131,2.78-0.385c1.321-0.338,2.679-0.648,4.021-0.92c2.518-0.502,4.506-1.598,5.885-3.175
		c0.688,1.096,1.897,1.831,3.284,1.831c0.094,0,0.24-0.005,0.331-0.013c4.466-0.376,9.012-0.387,13.476-0.034
		c0.085,0.008,0.224,0.013,0.311,0.013c0.813,0,1.566-0.253,2.19-0.682c0.606,0.627,1.411,1.066,2.346,1.195
		c3.038,0.423,6.083,1.02,9.039,1.772c1.021,0.263,1.943,0.391,2.817,0.391c1.787,0,3.637-0.604,4.938-2.067v0.003l8.882-9.376
		h-0.005c1.569-1.572,2.629-3.985,2.632-7.488v-20.481c0-1.287-0.304-2.561-0.853-3.733c0.547-1.013,0.853-2.188,0.853-3.467
		V144.683z"/>
	<path clip-path="url(#SVGID_2_)" fill="none" stroke="#010202" stroke-width="2.563" stroke-miterlimit="10" d="M314.809,144.683
		c-0.003-6.781-3.896-11.831-10.43-13.515c-4.256-1.081-8.613-1.937-12.954-2.539c-0.277-0.038-0.536-0.055-0.785-0.055
		c-1.03,0-2.003,0.295-2.818,0.841c-0.856-0.86-2.009-1.435-3.324-1.541c-4.187-0.331-8.387-0.443-12.623-0.325
		c-4.545,0.138-8.038,2.18-9.938,5.525c-0.083-0.111-0.144-0.238-0.233-0.345c-1.216-1.443-3.466-3.163-7.27-3.163
		c-0.894,0-1.843,0.098-2.837,0.294c-1.923,0.391-3.865,0.835-5.788,1.325c-6.485,1.674-10.358,6.72-10.363,13.499v13.437
		c-0.003,1.288,0.344,2.431,0.953,3.36h-0.008l7.36,13.184c-1.495,0.409-2.994,0.838-4.466,1.305
		c-2.325,0.74-3.834,2.792-3.84,5.238v3.251c0.002,3.416,1.008,5.792,2.507,7.368l8.921,9.416c0.016,0.019,0.035,0.034,0.052,0.054
		l0.326,0.345l0.001-0.002c1.276,1.236,2.982,1.753,4.631,1.753c0.857,0,1.795-0.131,2.78-0.385c1.321-0.338,2.679-0.648,4.021-0.92
		c2.518-0.502,4.506-1.598,5.885-3.175c0.688,1.096,1.897,1.831,3.284,1.831c0.094,0,0.24-0.005,0.331-0.013
		c4.466-0.376,9.012-0.387,13.476-0.034c0.085,0.008,0.224,0.013,0.311,0.013c0.813,0,1.566-0.253,2.19-0.682
		c0.606,0.627,1.411,1.066,2.346,1.195c3.038,0.423,6.083,1.02,9.039,1.772c1.021,0.263,1.943,0.391,2.817,0.391
		c1.787,0,3.637-0.604,4.938-2.067v0.003l8.882-9.376h-0.005c1.569-1.572,2.629-3.985,2.632-7.488v-20.481
		c0-1.287-0.304-2.561-0.853-3.733c0.547-1.013,0.853-2.188,0.853-3.467V144.683z"/>
	<path clip-path="url(#SVGID_2_)" fill="#FFFFFF" d="M252.469,134.168c4.688-0.934,7.211,1.295,7.211,5.977v3.302
		c0,0.5-0.251,0.831-0.804,0.909c-1.693,0.243-3.379,0.525-5.062,0.846c-0.496,0.094-0.795-0.144-0.797-0.645v-2.1
		c0-1.298-0.652-1.875-1.991-1.587c-0.914,0.196-1.824,0.405-2.733,0.625c-1.237,0.3-1.978,1.197-1.978,2.496v9.043
		c3.983,0.262,8.008,0.742,12.057,1.44c0.855,0.175,1.305,0.715,1.308,1.662v23.781c0,4.718-2.522,7.488-7.211,8.421
		c-1.861,0.377-3.716,0.801-5.562,1.271c-4.596,1.187-7.065-0.436-7.067-5.152v-3.25c0-0.548,0.288-0.896,0.777-1.051
		c1.645-0.521,3.297-1.005,4.96-1.45c0.541-0.145,0.785,0.045,0.787,0.595v2.1c-0.002,1.35,0.739,1.803,1.977,1.503
		c0.894-0.215,1.788-0.419,2.686-0.613c1.292-0.278,1.991-1.063,1.991-2.41v-19.433c-3.992-0.513-7.952-0.81-11.863-0.891
		c-0.878-0.022-1.316-0.481-1.314-1.43v-13.443c0.002-4.683,2.473-8.059,7.067-9.244
		C248.752,134.97,250.607,134.546,252.469,134.168"/>
	<path clip-path="url(#SVGID_2_)" fill="#FFFFFF" d="M310.414,156.777c0,1.854-1.315,2.817-3.082,2.595v0.103
		c1.77,0.821,3.082,2.652,3.082,4.503v20.481c-0.003,4.717-2.471,6.338-7.12,5.14c-4.121-1.049-8.288-1.865-12.477-2.446
		c-0.502-0.069-0.808-0.409-0.806-0.91V133.67c-0.002-0.549,0.304-0.758,0.806-0.689c4.188,0.581,8.355,1.397,12.477,2.446
		c4.648,1.197,7.118,4.576,7.12,9.257V156.777z M304.183,143.957c-0.001-1.3-0.638-2.176-1.977-2.503
		c-1.982-0.485-3.977-0.915-5.978-1.291v13.294c2.001,0.374,3.995,0.805,5.978,1.289c1.286,0.315,1.977-0.197,1.977-1.448V143.957z
		 M304.183,163.844c-0.001-1.296-0.638-2.172-1.977-2.5c-1.982-0.484-3.977-0.914-5.978-1.29v21.681
		c2.001,0.376,3.995,0.807,5.978,1.29c1.286,0.315,1.977-0.145,1.977-1.496V163.844z"/>
	<path clip-path="url(#SVGID_2_)" fill="#FAB832" d="M264.731,139.57c-0.002-4.682,2.52-7.484,7.276-7.629
		c4.05-0.11,8.103-0.005,12.143,0.314c0.506,0.041,0.805,0.368,0.806,0.865v33.395c-0.001,0.501-0.3,0.776-0.806,0.736
		c-1.65-0.132-3.304-0.227-4.955-0.284c-0.509-0.02-0.808-0.328-0.808-0.828v-9.749c-1.502-0.044-3.004-0.058-4.505-0.04
		c-0.811,3.292-1.621,6.594-2.432,9.902c-0.098,0.452-0.354,0.712-0.862,0.731c-1.65,0.065-3.302,0.167-4.949,0.306
		c-0.555,0.045-0.86-0.227-0.709-0.84c0.875-3.662,1.749-7.313,2.624-10.954c-1.867-1.022-2.823-2.976-2.823-5.875V139.57z
		 M278.388,149.942v-11.549c-1.687-0.048-3.375-0.06-5.062-0.033c-1.318,0.023-2.028,0.753-2.028,2.05v7.551
		c-0.001,1.3,0.708,1.971,2.028,1.948C275.013,149.883,276.701,149.893,278.388,149.942"/>
	<path clip-path="url(#SVGID_2_)" fill="#FAB832" d="M284.132,176.821c0.454,0.037,0.823-0.298,0.824-0.745v-3.771
		c-0.003-0.448-0.37-0.848-0.824-0.883c-6.184-0.489-12.396-0.475-18.578,0.046c-0.453,0.038-0.82,0.438-0.822,0.887v1.61v9.137
		v2.627c0,0.447,0.369,0.78,0.822,0.743c6.183-0.521,12.395-0.536,18.578-0.048c0.454,0.037,0.823-0.298,0.824-0.746v-3.77
		c-0.003-0.449-0.37-0.847-0.824-0.884c-2.318-0.184-4.644-0.295-6.972-0.338v2.792c-0.001,0.252-0.139,0.481-0.363,0.601
		c-0.105,0.055-0.22,0.08-0.336,0.079c-0.134-0.001-0.261-0.039-0.379-0.114c-2.571-1.651-5.143-3.217-7.712-4.695
		c-0.199-0.114-0.318-0.327-0.32-0.562c0-0.236,0.121-0.462,0.32-0.602c2.569-1.782,5.141-3.479,7.712-5.089
		c0.217-0.135,0.491-0.141,0.715-0.017c0.225,0.125,0.365,0.36,0.363,0.611v2.792C279.488,176.526,281.813,176.638,284.132,176.821"
		/>
	<path clip-path="url(#SVGID_2_)" fill="#010202" d="M42.87,203.918c-0.19,0-0.382-0.008-0.572-0.02
		c-2.368-0.149-4.513-1.214-6.042-2.996l-11.247-13.694c-1.511-1.768-2.329-3.976-2.308-6.219c0.021-2.432,1.036-4.628,2.854-6.188
		c3.697-3.171,8.854-2.801,11.996,0.859l11.956,14.137c3.221,3.755,2.896,8.781-0.782,11.936
		C47.072,203.153,45.013,203.918,42.87,203.918 M31.193,177.018c-0.942,0-1.909,0.369-2.78,1.115
		c-1.079,0.927-1.315,2.088-1.323,2.897c-0.011,1.171,0.45,2.389,1.266,3.337l0.03,0.037l11.232,13.676
		c0.722,0.84,1.782,1.362,2.957,1.438c1.194,0.079,2.366-0.318,3.293-1.116c1.834-1.572,1.949-3.831,0.298-5.758l-11.957-14.136
		C33.361,177.519,32.293,177.018,31.193,177.018"/>
	<path clip-path="url(#SVGID_2_)" fill="none" stroke="#010202" stroke-width="2.563" stroke-miterlimit="10" d="M42.87,203.918
		c-0.19,0-0.382-0.008-0.572-0.02c-2.368-0.149-4.513-1.214-6.042-2.996l-11.247-13.694c-1.511-1.768-2.329-3.976-2.308-6.219
		c0.021-2.432,1.036-4.628,2.854-6.188c3.697-3.171,8.854-2.801,11.996,0.859l11.956,14.137c3.221,3.755,2.896,8.781-0.782,11.936
		C47.072,203.153,45.013,203.918,42.87,203.918z M31.193,177.018c-0.942,0-1.909,0.369-2.78,1.115
		c-1.079,0.927-1.315,2.088-1.323,2.897c-0.011,1.171,0.45,2.389,1.266,3.337l0.03,0.037l11.232,13.676
		c0.722,0.84,1.782,1.362,2.957,1.438c1.194,0.079,2.366-0.318,3.293-1.116c1.834-1.572,1.949-3.831,0.298-5.758l-11.957-14.136
		C33.361,177.519,32.293,177.018,31.193,177.018z"/>
	<path clip-path="url(#SVGID_2_)" fill="#010202" d="M53.442,196.525c-2.416,0-4.736-0.919-6.302-2.743l-16.828-19.815
		c-3.016-3.521-2.289-9.115,1.623-12.473c1.801-1.545,4.079-2.3,6.43-2.165c2.366,0.15,4.512,1.215,6.041,2.996l16.585,19.333
		c1.528,1.78,2.255,4.063,2.042,6.426c-0.209,2.339-1.317,4.481-3.118,6.025C58.033,195.724,55.695,196.525,53.442,196.525
		 M37.798,163.701c-1.095,0-2.151,0.394-3.004,1.124c-1.819,1.562-2.714,4.46-1.146,6.289l0.008,0.008l16.824,19.811
		c1.595,1.86,4.749,1.414,6.577-0.155c0.927-0.795,1.497-1.892,1.604-3.087c0.104-1.171-0.25-2.298-1.001-3.174l-16.587-19.333
		c-0.75-0.876-1.812-1.399-2.986-1.473C37.99,163.703,37.895,163.701,37.798,163.701"/>
	<path clip-path="url(#SVGID_2_)" fill="none" stroke="#010202" stroke-width="2.563" stroke-miterlimit="10" d="M53.442,196.525
		c-2.416,0-4.736-0.919-6.302-2.743l-16.828-19.815c-3.016-3.521-2.289-9.115,1.623-12.473c1.801-1.545,4.079-2.3,6.43-2.165
		c2.366,0.15,4.512,1.215,6.041,2.996l16.585,19.333c1.528,1.78,2.255,4.063,2.042,6.426c-0.209,2.339-1.317,4.481-3.118,6.025
		C58.033,195.724,55.695,196.525,53.442,196.525z M37.798,163.701c-1.095,0-2.151,0.394-3.004,1.124
		c-1.819,1.562-2.714,4.46-1.146,6.289l0.008,0.008l16.824,19.811c1.595,1.86,4.749,1.414,6.577-0.155
		c0.927-0.795,1.497-1.892,1.604-3.087c0.104-1.171-0.25-2.298-1.001-3.174l-16.587-19.333c-0.75-0.876-1.812-1.399-2.986-1.473
		C37.99,163.703,37.895,163.701,37.798,163.701z"/>
	<path clip-path="url(#SVGID_2_)" fill="#010202" d="M64.266,187.525c-2.465,0-4.896-1.018-6.605-3.009l-18.538-21.607
		c-3.141-3.662-2.658-9.249,1.077-12.452c1.801-1.544,4.083-2.309,6.429-2.164c2.366,0.149,4.513,1.213,6.041,2.995l4.617,5.384
		l-3.331,2.858l-4.618-5.383c-0.752-0.877-1.812-1.4-2.986-1.474c-1.188-0.067-2.365,0.32-3.294,1.116
		c-1.897,1.628-2.166,4.437-0.602,6.262l18.536,21.606c1.564,1.823,4.383,1.986,6.279,0.355c1.897-1.626,2.168-4.436,0.603-6.261
		l-5.681-6.62l3.33-2.859l5.682,6.622c3.143,3.661,2.659,9.247-1.075,12.451C68.426,186.808,66.335,187.525,64.266,187.525"/>
	<path clip-path="url(#SVGID_2_)" fill="none" stroke="#010202" stroke-width="2.563" stroke-miterlimit="10" d="M64.266,187.525
		c-2.465,0-4.896-1.018-6.605-3.009l-18.538-21.607c-3.141-3.662-2.658-9.249,1.077-12.452c1.801-1.544,4.083-2.309,6.429-2.164
		c2.366,0.149,4.513,1.213,6.041,2.995l4.617,5.384l-3.331,2.858l-4.618-5.383c-0.752-0.877-1.812-1.4-2.986-1.474
		c-1.188-0.067-2.365,0.32-3.294,1.116c-1.897,1.628-2.166,4.437-0.602,6.262l18.536,21.606c1.564,1.823,4.383,1.986,6.279,0.355
		c1.897-1.626,2.168-4.436,0.603-6.261l-5.681-6.62l3.33-2.859l5.682,6.622c3.143,3.661,2.659,9.247-1.075,12.451
		C68.426,186.808,66.335,187.525,64.266,187.525z"/>
	<path clip-path="url(#SVGID_2_)" fill="#010202" d="M72.455,176.432c-2.464,0-4.856-1.001-6.533-2.954l-1.909-2.225l3.33-2.857
		l1.91,2.225c1.548,1.803,4.278,1.927,6.354,0.298c0.655-0.786,0.717-4.732-0.454-6.947l-0.197-0.336
		c-0.088-0.137-0.578-0.875-0.679-0.993l0.217-0.382l0.636-2.685l1.442-0.617l1.434,1.437c2.036,2.376,2.661,6.374,2.377,9.284
		c-0.149,1.518-0.628,3.562-2.062,4.689C76.56,175.752,74.484,176.432,72.455,176.432"/>
	<path clip-path="url(#SVGID_2_)" fill="none" stroke="#010202" stroke-width="2.563" stroke-miterlimit="10" d="M72.455,176.432
		c-2.464,0-4.856-1.001-6.533-2.954l-1.909-2.225l3.33-2.857l1.91,2.225c1.548,1.803,4.278,1.927,6.354,0.298
		c0.655-0.786,0.717-4.732-0.454-6.947l-0.197-0.336c-0.088-0.137-0.578-0.875-0.679-0.993l0.217-0.382l0.636-2.685l1.442-0.617
		l1.434,1.437c2.036,2.376,2.661,6.374,2.377,9.284c-0.149,1.518-0.628,3.562-2.062,4.689
		C76.56,175.752,74.484,176.432,72.455,176.432z"/>
	<path clip-path="url(#SVGID_2_)" fill="#010202" d="M53.953,159.527l-3.641-4.243c-3.142-3.662-2.66-9.248,1.075-12.452
		c1.802-1.545,4.082-2.313,6.43-2.165c2.365,0.15,4.512,1.216,6.04,2.997l2.641,3.076l-3.332,2.857l-2.641-3.075
		c-0.751-0.877-1.813-1.399-2.987-1.474c-1.188-0.066-2.364,0.319-3.292,1.115c-1.898,1.629-2.168,4.438-0.601,6.263l3.639,4.241
		L53.953,159.527z"/>
	<path clip-path="url(#SVGID_2_)" fill="none" stroke="#010202" stroke-width="2.563" stroke-miterlimit="10" d="M53.953,159.527
		l-3.641-4.243c-3.142-3.662-2.66-9.248,1.075-12.452c1.802-1.545,4.082-2.313,6.43-2.165c2.365,0.15,4.512,1.216,6.04,2.997
		l2.641,3.076l-3.332,2.857l-2.641-3.075c-0.751-0.877-1.813-1.399-2.987-1.474c-1.188-0.066-2.364,0.319-3.292,1.115
		c-1.898,1.629-2.168,4.438-0.601,6.263l3.639,4.241L53.953,159.527z"/>
	<path clip-path="url(#SVGID_2_)" fill="#010202" d="M91.915,186.708l-3.996-1.82c1.861-4.09,5.954-16.13,2.606-22.623
		c-3.295-6.384-9.986-16.863-17.8-15.219c-4.38,0.913-7.424,4.278-10.646,7.842c-2.434,2.691-4.951,5.476-8.257,7.531
		c-0.699,0.436-1.119,0.927-1.095,1.275c0.031,0.422,0.641,1.294,2.194,1.975c3.382,1.483,9.633,1.374,16.123-3.799l5.98-4.457
		c-1.738,8.277-14.279,14.836-23.865,12.276c-3.002-0.802-4.645-3.371-4.811-5.679c-0.087-1.198,0.209-3.485,3.153-5.319
		c2.782-1.731,5.089-4.283,7.32-6.749c3.551-3.928,7.225-7.989,13.005-9.196c8.01-1.661,15.826,4.382,22.596,17.506
		C99.438,169.97,92.224,186.03,91.915,186.708"/>
	<path clip-path="url(#SVGID_2_)" fill="none" stroke="#010202" stroke-width="2.563" stroke-miterlimit="10" d="M91.915,186.708
		l-3.996-1.82c1.861-4.09,5.954-16.13,2.606-22.623c-3.295-6.384-9.986-16.863-17.8-15.219c-4.38,0.913-7.424,4.278-10.646,7.842
		c-2.434,2.691-4.951,5.476-8.257,7.531c-0.699,0.436-1.119,0.927-1.095,1.275c0.031,0.422,0.641,1.294,2.194,1.975
		c3.382,1.483,9.633,1.374,16.123-3.799l5.98-4.457c-1.738,8.277-14.279,14.836-23.865,12.276c-3.002-0.802-4.645-3.371-4.811-5.679
		c-0.087-1.198,0.209-3.485,3.153-5.319c2.782-1.731,5.089-4.283,7.32-6.749c3.551-3.928,7.225-7.989,13.005-9.196
		c8.01-1.661,15.826,4.382,22.596,17.506C99.438,169.97,92.224,186.03,91.915,186.708z"/>
	<path clip-path="url(#SVGID_2_)" fill="#010202" d="M65.006,220.263c-1.755,0-3.502-0.708-4.773-2.104
		c-2.396-2.632-2.204-6.72,0.426-9.115L85.96,186c1.274-1.161,2.931-1.776,4.646-1.675c1.724,0.08,3.31,0.826,4.471,2.102
		c2.396,2.63,2.204,6.718-0.426,9.112l-25.303,23.046C68.113,219.708,66.557,220.263,65.006,220.263 M88.425,188.703l-25.303,23.045
		c-1.14,1.038-1.223,2.808-0.185,3.947c0.502,0.552,1.189,0.873,1.936,0.909c0.737,0.016,1.461-0.223,2.012-0.724l25.302-23.045
		c0.552-0.503,0.876-1.189,0.91-1.935c0.035-0.746-0.223-1.46-0.726-2.011c-0.502-0.554-1.189-0.878-1.935-0.911
		C89.679,187.932,88.976,188.202,88.425,188.703"/>
	<path clip-path="url(#SVGID_2_)" fill="none" stroke="#010202" stroke-width="2.563" stroke-miterlimit="10" d="M65.006,220.263
		c-1.755,0-3.502-0.708-4.773-2.104c-2.396-2.632-2.204-6.72,0.426-9.115L85.96,186c1.274-1.161,2.931-1.776,4.646-1.675
		c1.724,0.08,3.31,0.826,4.471,2.102c2.396,2.63,2.204,6.718-0.426,9.112l-25.303,23.046
		C68.113,219.708,66.557,220.263,65.006,220.263z M88.425,188.703l-25.303,23.045c-1.14,1.038-1.223,2.808-0.185,3.947
		c0.502,0.552,1.189,0.873,1.936,0.909c0.737,0.016,1.461-0.223,2.012-0.724l25.302-23.045c0.552-0.503,0.876-1.189,0.91-1.935
		c0.035-0.746-0.223-1.46-0.726-2.011c-0.502-0.554-1.189-0.878-1.935-0.911C89.679,187.932,88.976,188.202,88.425,188.703z"/>
	<path clip-path="url(#SVGID_2_)" fill="#010202" d="M60.32,214.736c-15.527,0-23.925-13.547-24.274-14.123l3.75-2.28
		c0.073,0.119,7.509,12.014,20.525,12.014h0.052l0.012,4.39H60.32z"/>
	<path clip-path="url(#SVGID_2_)" fill="none" stroke="#010202" stroke-width="2.563" stroke-miterlimit="10" d="M60.32,214.736
		c-15.527,0-23.925-13.547-24.274-14.123l3.75-2.28c0.073,0.119,7.509,12.014,20.525,12.014h0.052l0.012,4.39H60.32z"/>
	<path clip-path="url(#SVGID_2_)" fill="#010202" d="M462.697,404.684c-0.033-0.06-0.066-0.118-0.104-0.174
		c-0.502-0.786-1.277-1.332-2.188-1.535c-0.908-0.201-1.844-0.039-2.629,0.463l-0.373,0.236c-0.617-1.459-1.318-3.001-2.113-4.612
		l1.426-0.908c1.564-0.994,2.068-3.041,1.176-4.641c-0.033-0.06-0.068-0.116-0.105-0.175c-0.5-0.786-1.277-1.33-2.186-1.532
		c-0.91-0.203-1.844-0.041-2.629,0.46l-1.012,0.644c-0.764-1.294-1.598-2.619-2.484-3.966l1.08-0.688
		c1.568-0.995,2.07-3.041,1.178-4.641c-0.035-0.059-0.07-0.116-0.104-0.174c-1.033-1.624-3.193-2.105-4.818-1.073l-1.336,0.85
		c-9.455-13.214-9.674-13.892-11.285-18.934c-0.172-0.544-0.361-1.136-0.578-1.795c-0.535-1.634-1.313-3.36-2.23-5.092l1.32-0.837
		c0.662-0.419,1.139-1.038,1.4-1.762c0.053-0.138,0.104-0.275,0.137-0.418l0.002-0.003v-0.01c0.191-0.824,0.094-1.71-0.342-2.489
		c-0.033-0.06-0.066-0.115-0.104-0.174c-0.5-0.787-1.277-1.331-2.186-1.534c-0.91-0.202-1.846-0.04-2.631,0.462l-1.275,0.811
		c-0.615-0.869-1.242-1.721-1.871-2.529l0.523-0.33c0.943-0.598,1.488-1.578,1.592-2.61c0.006-0.059,0.018-0.116,0.021-0.175
		c0.004-0.112-0.006-0.222-0.01-0.332c-0.006-0.119-0.006-0.239-0.025-0.357c-0.01-0.068-0.031-0.135-0.045-0.202
		c-0.035-0.161-0.068-0.319-0.127-0.477c-0.014-0.037-0.033-0.071-0.049-0.106c-0.053-0.138-0.104-0.276-0.178-0.409
		c-0.031-0.06-0.066-0.116-0.104-0.176c-0.5-0.785-1.275-1.329-2.186-1.531c-0.91-0.203-1.844-0.038-2.631,0.462l-1.502,0.955
		c-0.756-0.718-1.465-1.323-2.078-1.753l-0.656-0.457l-0.752,0.271c-1.029,0.374-3.053,1.126-5.545,2.151
		c-7.93,3.241-20.65,9.246-21.715,14.785c-0.115,0.587-0.131,1.323,0.127,2.113l-49.998,25.11l-26.681-34.311h55.157
		c8.508,0,7.664-7.662,7.664-7.662V217.636c0-4.053-2.471-6.027-2.471-6.027l-9.775-9.021c-2.736-2.525-7.143-2.471-7.143-2.471
		h-20.855c4.764-9.662,7.393-20.372,7.393-31.181c0-38.247-31.117-69.363-69.365-69.363c-35.195,0-64.332,26.354-68.761,60.361
		c-8.02,10.899-14.494,24.352-19.313,40.183h-2.315c-2.832-9.054-6.114-24.486-2.678-40.471l-5.312,1.683
		c-2.057,5.682-5.26,17.391-5.188,35.07l-5.432-7.39c-1.344-1.828-3.319-3.022-5.563-3.365c-0.002-0.001-0.004-0.001-0.005-0.001
		c0.027-6.954,1.232-13.788,3.611-20.331l-6.026,1.91c-1.865,6.249-2.791,12.71-2.732,19.268c-0.399,0.205-0.79,0.436-1.158,0.706
		c-1.828,1.345-3.023,3.319-3.366,5.563c-0.343,2.242,0.209,4.484,1.553,6.313l0.77,1.046H139.85c-4.766,0-4.702,4.774-4.702,4.774
		v6.857c-20.514,4.767-36.305-13.972-39.401-17.977l-2.822,3.053l-22.171,20.22l22.171-20.22c3.83,4.78,17.337,19.819,35.542,19.819
		c2.161,0,4.396-0.238,6.682-0.705v48.858c-38.589-3.55-60.917-41.412-64.395-47.753l-3.379,2.378
		c4.422,7.91,27.743,46.05,67.773,49.503v62.142l-21.56,8.178c-6.329,1.839-11.573,6.021-14.773,11.788
		c-3.22,5.801-3.988,12.504-2.163,18.88c0.597,2.091,1.454,4.039,2.514,5.83l25.38,67.915c-6.284,2.824-37.77,16.604-55.112,17.199
		l-0.596,0.02l-0.428,0.416c-0.262,0.257-6.392,6.416-2.562,18.863l0.216,0.701l0.68,0.275c0.249,0.101,2.995,1.174,7.769,2.15
		l0.11,1.937c0.107,1.853,1.648,3.288,3.481,3.288c0.067,0,0.136-0.002,0.204-0.007c0.931-0.051,1.783-0.465,2.404-1.161
		c0.619-0.695,0.931-1.593,0.877-2.521l-0.025-0.439c1.576,0.174,3.267,0.31,5.058,0.399l0.099,1.688
		c0.106,1.852,1.648,3.287,3.481,3.287c0.065,0,0.134-0.002,0.203-0.005c0.93-0.054,1.782-0.467,2.403-1.163
		c0.619-0.695,0.933-1.59,0.879-2.521l-0.07-1.194c1.503-0.039,3.067-0.121,4.675-0.24l0.073,1.281
		c0.106,1.852,1.649,3.288,3.481,3.288c0.067,0,0.135-0.003,0.203-0.007c1.92-0.109,3.392-1.762,3.282-3.684l-0.092-1.581
		c16.147-1.82,16.844-1.681,22.033-0.63c0.56,0.113,1.168,0.237,1.85,0.368c1.693,0.33,3.586,0.491,5.552,0.533l0.093,1.599
		c0.107,1.853,1.648,3.289,3.48,3.289c0.068,0,0.137-0.002,0.204-0.008c0.931-0.052,1.783-0.465,2.404-1.159
		c0.619-0.698,0.932-1.593,0.877-2.523l-0.087-1.511c1.066-0.11,2.121-0.244,3.139-0.402l0.037,0.639
		c0.106,1.852,1.648,3.287,3.481,3.287c0.066,0,0.135-0.002,0.203-0.008c0.932-0.049,1.783-0.465,2.404-1.16
		c0.619-0.695,0.932-1.592,0.878-2.521l-0.103-1.779c0.995-0.312,1.868-0.634,2.542-0.962l0.719-0.348l0.129-0.79
		c0.736-4.518,4.124-27.301-1.56-32.06c-0.786-0.658-2.092-1.289-3.935-0.829l-6.626-62.768l54.046-9.652
		c1.337,0.455,2.728,0.39,3.871,0.329c1.794-0.095,2.853-0.104,3.829,0.793c1.305,1.194,1.704,2.518,2.126,3.92
		c0.69,2.299,1.554,5.161,6.337,5.845c2.058,0.295,3.784,0.205,5.308,0.13c3.111-0.161,4.676-0.238,7.086,2.729
		c4.503,5.54,10.803,3.12,13.832,1.956c0.606-0.233,1.182-0.454,1.527-0.538c0.425,0.076,1.481,0.754,2.189,1.207
		c1.662,1.063,3.921,2.512,6.4,2.512c1.038,0,2.117-0.256,3.205-0.898c3.098-1.833,5.705-4.337,7.858-7.46l50.467,43.183
		c4.683,4.645,10.887,7.201,17.484,7.201c6.631,0,12.867-2.584,17.557-7.274c0.951-0.951,1.795-1.983,2.57-3.053l50.082-40.718
		c3.756,2.78,34.529,25.837,43.881,41.392l0.305,0.511l0.57,0.173c0.123,0.035,1.195,0.342,2.92,0.342
		c2.088,0,5.139-0.457,8.611-2.38c0.016-0.01,0.031-0.021,0.049-0.032c0.268-0.149,0.539-0.301,0.813-0.469
		c1.758-1.063,3.609-2.506,5.498-4.475l0.506-0.53l-0.092-0.729c-0.033-0.266-0.436-3.188-1.906-7.831l1.637-1.042
		C463.086,408.33,463.59,406.285,462.697,404.684 M454.074,394.001c0.322-0.207,0.707-0.272,1.08-0.19
		c0.375,0.083,0.695,0.307,0.9,0.629c0.193,0.331,0.271,0.71,0.189,1.083c-0.084,0.373-0.309,0.692-0.633,0.898l-1.252,0.797
		c-0.383-0.734-0.779-1.478-1.203-2.234c-0.053-0.096-0.115-0.195-0.17-0.292L454.074,394.001z M447.916,384.103
		c0.666-0.426,1.555-0.228,1.98,0.439c0.193,0.329,0.271,0.708,0.188,1.081c-0.082,0.374-0.305,0.692-0.629,0.897l-1.129,0.719
		c-0.359-0.521-0.711-1.04-1.092-1.567c-0.191-0.268-0.373-0.522-0.559-0.781L447.916,384.103z M430.072,352.402
		c0.324-0.205,0.707-0.271,1.082-0.189c0.373,0.085,0.691,0.31,0.896,0.634c0.203,0.321,0.268,0.702,0.186,1.074
		c-0.088,0.358-0.301,0.668-0.615,0.866l-1.252,0.796c-0.475-0.815-0.975-1.625-1.496-2.422L430.072,352.402z M423.727,344.423
		c0.322-0.205,0.707-0.27,1.08-0.188c0.371,0.084,0.691,0.309,0.898,0.633c0.102,0.162,0.164,0.34,0.197,0.518
		c0.084,0.547-0.146,1.12-0.643,1.438l-0.738,0.469c-0.65-0.774-1.291-1.503-1.91-2.164L423.727,344.423z M344.443,205.253h12.867
		c0,0,2.375-0.02,4.346,1.799l8.982,8.292c0,0,0.861,0.768,0.861,2.752v126.109c0,0,0.318,2.193-2.629,2.193h-80.592
		c0.207-2.922-2.411-6.882-3.367-8.22h72.531c0.387,0.004,1.941,0.057,2.967,0.698l7.994,4.996l-6.355-6.931
		c-0.004-0.005-0.838-0.934-0.854-2.64l-1.129-121.344l-1.896,120.612v-0.002c-0.023,1.349-1.043,1.553-1.447,1.582l-0.174,0.006
		l0,0l-71.984,2.549c-0.068-0.094,0,0,0,0c16.229-15.434,25.577-31.599,30.854-46.212c2.448-0.333,3.046-2.257,3.046-2.257
		l7.25-14.738l28.475,47.739l-26.867-51.006l26.656-54.21l-36.16,65.25c6.951-24.703,2.74-41.601,2.74-41.601
		c8.201-3,5.367-11.679,5.367-11.679C334.094,223.869,341.846,210.166,344.443,205.253 M252.141,242.039
		c7.983-0.315,46.773-1.246,57.611,9.795c-0.089,4.824-0.54,10.389-1.653,16.445c-3.341,18.155-13.495,44.51-42.776,67.473
		l-27.057-14.301c12.721-17.55,15.456-40.434,15.456-56.729C253.722,255.696,252.937,247.767,252.141,242.039 M244.779,230.973
		c-2.418,0-4.384-1.966-4.384-4.383c0-2.418,1.966-4.385,4.384-4.385h65.449c2.418,0,4.385,1.967,4.385,4.385
		c0,2.417-1.967,4.383-4.385,4.383H244.779z M274.422,105.048c35.229,0,63.889,28.659,63.889,63.888
		c0,18.99-9.49,37.962-24.075,50.168c-1.194-0.642-2.558-1.008-4.007-1.008h-65.449c-2.83,0-5.336,1.396-6.879,3.531
		c-16.565-12.011-27.366-32.262-27.366-52.691C210.534,133.708,239.193,105.048,274.422,105.048 M205.08,168.076
		c-0.005,0.288-0.022,0.572-0.022,0.86c0,0-5.213,15.904-0.878,31.181h-13.518C194.478,187.905,199.298,177.192,205.08,168.076
		 M175.987,179.816c0.57,7.973,2.179,15.024,3.752,20.301h-4.711C174.795,192.235,175.237,185.456,175.987,179.816 M154.247,193.378
		c0.176-1.157,0.794-2.178,1.736-2.871c0.944-0.692,2.103-0.979,3.259-0.802c1.158,0.178,2.177,0.795,2.871,1.737l6.376,8.674
		h-10.883l-2.558-3.48C154.354,195.692,154.07,194.535,154.247,193.378 M140.285,206.475c0-1.252,1.39-1.222,1.39-1.222h74.36
		c5.344,8.658,12.333,16.3,20.281,22.009l0.003-0.009c0.34,4.373,3.999,7.829,8.46,7.829h2.029c1.22,6.23,5.166,27.416,0.636,51.022
		h-64.243c-1.81,0-2.7-1.373-2.7-1.373l-34.84-69.057l23.989,55.554l-24.02,52.452l26.048-48.185l5.725,13.162
		c0,0,1.585,2.903,5.446,2.903h63.955c-2.219,9.887-6.02,19.644-12.221,28.003c-1.335-0.564-2.806-0.668-4.205-0.236
		c-1.578,0.486-2.87,1.558-3.643,3.018c-0.337,0.638-0.543,1.31-0.643,1.987c-3.476,0.088-12.329,0.523-18.454,2.659
		c-6.994,2.443-18.684,0.098-20.136-0.954c-1.291-1.024-2.956-1.088-4.345-0.168c-1.892,1.254-3.271,4.434-2.612,8.331
		l-32.557,1.923l33.36,0.933c1.86,4.817,5.771,7.876,11.989,9.342h-39.123c-1.057,0-1.84-0.576-1.84-0.576l-11.36-9.737
		c0,0-0.731-0.628-0.731-1.918V206.475z M106.12,383.278c1.475,1.05,3.052,1.949,4.717,2.658c0,0,0.037,0.012,0.09,0.032
		c1.422,0.6,2.904,1.05,4.423,1.378c5.451,1.454,15.017,3.218,24.067,0.984l0.692,5.421l-28.63,4.68L106.12,383.278z
		 M112.178,400.403l28.193-4.612l0.947,7.404l-26.4,4.957L112.178,400.403z M115.611,410.112l25.967-4.876l0.54,4.209l-25.077,4.707
		L115.611,410.112z M124.67,446.984l6.618,11.341c-0.106,0.442-0.386,1.259-1.053,1.691c-0.528,0.341-1.253,0.398-2.156,0.172
		l-7.114-11.584C122.445,447.968,123.698,447.417,124.67,446.984 M114.36,451.362l6.471,11.091c-0.106,0.442-0.385,1.259-1.052,1.69
		c-0.528,0.344-1.253,0.398-2.157,0.173l-7.032-11.451C111.901,452.352,113.159,451.851,114.36,451.362 M103.704,455.47
		l6.642,11.383c-0.105,0.439-0.385,1.257-1.041,1.687c-0.53,0.349-1.256,0.405-2.167,0.177l-7.293-11.875
		C101.149,456.389,102.438,455.93,103.704,455.47 M79.177,485.974c-0.255,0.283-0.604,0.455-0.988,0.476
		c-0.801,0.02-1.469-0.558-1.514-1.348l-0.082-1.426c0.909,0.158,1.875,0.309,2.897,0.448l0.048,0.812
		C79.56,485.318,79.432,485.686,79.177,485.974 M91.272,487.219c-0.255,0.285-0.605,0.454-0.987,0.478
		c-0.382,0.01-0.752-0.107-1.036-0.363c-0.286-0.254-0.455-0.604-0.478-0.986l-0.086-1.483c0.827,0.022,1.671,0.037,2.536,0.037
		c0.111,0,0.229-0.005,0.337-0.005l0.075,1.286C91.655,486.566,91.528,486.93,91.272,487.219 M101.931,487.141
		c-0.383,0.009-0.752-0.108-1.037-0.362c-0.286-0.255-0.455-0.605-0.477-0.988l-0.078-1.336c0.631-0.06,1.256-0.113,1.9-0.188
		c0.326-0.039,0.638-0.073,0.955-0.108l0.083,1.467C103.324,486.416,102.72,487.094,101.931,487.141 M139.321,486.55
		c-0.256,0.285-0.606,0.456-0.988,0.477c-0.382,0.016-0.752-0.104-1.037-0.359c-0.285-0.255-0.454-0.606-0.478-0.989l-0.085-1.48
		c0.95-0.021,1.907-0.061,2.865-0.129l0.083,1.445C139.703,485.896,139.576,486.264,139.321,486.55 M149.376,484.874
		c-0.255,0.286-0.606,0.456-0.988,0.479c-0.788,0.04-1.469-0.561-1.515-1.349l-0.05-0.877c0.997-0.189,1.952-0.396,2.837-0.617
		l0.075,1.327C149.759,484.218,149.63,484.586,149.376,484.874 M152.165,478.52c-4.559,1.835-15.458,3.481-22.456,2.12
		c-0.671-0.132-1.271-0.252-1.822-0.364c-5.968-1.209-6.875-1.253-25.997,0.929c-17.909,2.043-30.34-1.668-33.312-2.687
		c-0.256-0.915-0.438-1.779-0.581-2.608c3.591,1.109,11.488,3.068,22.611,3.068c3.437,0,7.182-0.186,11.198-0.646
		c19.574-2.229,20.04-2.135,25.724-0.982c0.57,0.116,1.189,0.242,1.882,0.378c7.107,1.38,17.56-0.026,23.132-1.854
		C152.423,476.779,152.298,477.667,152.165,478.52 M150.616,456.76c0.92-0.977,1.252-3.558,0.985-5.467l-1.44,1.151l-0.32-3.035
		l0.212,0.604c0.825-0.291,1.212-0.097,1.483,0.128c2.648,2.218,2.423,13.625,1.29,23.452c-4.849,1.864-15.896,3.5-23.02,2.115
		c-0.688-0.134-1.303-0.259-1.866-0.373c-5.979-1.212-6.469-1.312-26.367,0.955c-17.685,2.015-30.174-1.43-33.846-2.635
		c-0.366-5.489,1.639-8.677,2.482-9.749c7.849-0.401,18.051-3.152,27.642-6.386l7.946,12.938l0.364,0.114
		c0.707,0.225,1.369,0.335,1.984,0.335c0.857,0,1.621-0.218,2.283-0.651c1.756-1.15,2.01-3.389,2.02-3.484l0.035-0.335
		l-6.821-11.688c1.015-0.379,2.006-0.755,2.979-1.13l7.639,12.437l0.364,0.116c0.709,0.223,1.371,0.335,1.984,0.335
		c0.857,0,1.622-0.218,2.285-0.652c1.755-1.151,2.008-3.389,2.018-3.483l0.036-0.335l-6.688-11.462
		c0.975-0.4,1.905-0.79,2.773-1.158l7.683,12.512l0.366,0.114c0.707,0.224,1.367,0.337,1.983,0.337c0.857,0,1.62-0.218,2.283-0.652
		c1.414-0.928,1.848-2.54,1.972-3.19l14.693-0.7C148.767,457.854,149.829,457.595,150.616,456.76 M147.923,454.805l-15.895,0.711
		l-0.905-1.551l-9.948-28.125l22.468-4.474L147.923,454.805z M143.382,419.324l-22.899,4.559l-2.749-7.771l24.646-4.626
		L143.382,419.324z M126.223,381.955l-0.285,0.063c-10.44,2.985-21.361-3.078-24.348-13.518c-1.446-5.056-0.837-10.375,1.715-14.975
		c2.554-4.596,6.744-7.926,11.801-9.373l20.408-7.729c0.665,2.248,2.012,3.436,2.012,3.436l11.442,9.807c0,0,2.805,1.87,5.975,1.87
		h4.074l5.6,4.838c0,0,3.826,1.87,8.577,1.87h20.04c-0.999,3.216-1.396,6.653-0.622,10.172c0.199,0.906,0.447,1.681,0.729,2.355
		L126.223,381.955z M263.248,380.585l-0.086-0.073c0.053-0.111,0.103-0.226,0.153-0.337L263.248,380.585z M250.619,388.978
		c-1.4,0.831-3.007-0.07-5.298-1.538c-1.731-1.107-3.37-2.159-5.158-1.788c-0.664,0.138-1.398,0.419-2.248,0.745
		c-3.581,1.377-6.742,2.273-9.167-0.711c-3.726-4.587-7.161-4.411-10.485-4.243c-1.403,0.071-2.854,0.146-4.519-0.093
		c-2.184-0.313-2.369-0.927-2.982-2.962c-0.483-1.606-1.146-3.807-3.281-5.764c-2.298-2.107-4.913-1.967-6.823-1.867
		c-2.459,0.137-3.284,0.174-4.032-3.225c-1.601-7.276,3.009-14.336,7.867-20.944c3.854-5.239,8.506-9.445,8.567-9.47
		c-0.282,0.108-6.617,0.746-11.181,6.166c-13.021-0.374-15.998-4.931-17.095-8.905c-0.688-2.493-0.008-4.325,0.464-4.911
		c3.296,2.096,16.11,4.068,23.747,1.406c6.002-2.095,15.412-2.402,17.927-2.446c0.56,0.929,1.364,1.723,2.392,2.267l32.124,16.979
		c0.7,0.371,1.44,0.591,2.184,0.674C264.67,369.569,260.308,383.25,250.619,388.978 M267.061,343.657
		c-0.796,1.511-2.675,2.089-4.183,1.292l-32.125-16.98c-1.51-0.798-2.089-2.674-1.291-4.182c0.387-0.731,1.035-1.269,1.824-1.512
		c0.302-0.093,0.609-0.14,0.915-0.14c0.498,0,0.992,0.122,1.443,0.359l32.126,16.98c0.73,0.388,1.269,1.035,1.514,1.824
		C267.527,342.089,267.448,342.927,267.061,343.657 M268.957,338.142c-0.005-0.005-0.011-0.009-0.016-0.015
		c0.014-0.011,0.027-0.021,0.04-0.033c-0.016,0.017-0.029,0.029-0.029,0.029C268.955,338.13,268.955,338.137,268.957,338.142
		 M342.445,424.535c-3.719,3.718-8.664,5.769-13.924,5.769s-10.205-2.051-13.924-5.769l-42.924-36.739
		c6.548-12.221,7.825-23.838,8.042-29.098h33.165l29.354,37.749l0.211,0.24c3.721,3.718,5.766,8.663,5.766,13.924
		C348.211,415.87,346.166,420.816,342.445,424.535 M352.537,416.834c0.52-2.01,0.814-4.093,0.814-6.224
		c0-0.412-0.039-0.818-0.061-1.226l0.061,0.088c0.428-5.317-3.961-19.426-5.084-22.931l3.166-1.59l13.084,22.417L352.537,416.834z
		 M366.146,406.083l-12.875-22.055l6.801-3.415l12.09,20.716L366.146,406.083z M373.793,400.043l-11.881-20.354l3.955-1.984
		l11.455,19.55L373.793,400.043z M378.951,395.968l-11.244-19.188l6.795-3.412l10.344,17.942L378.951,395.968z M386.477,390.024
		l-10.135-17.582l23.291-11.695l7.809,12.713L386.477,390.024z M402.014,382.995c-0.309-0.232-0.574-0.43-0.814-0.608l2.27-1.844
		L402.014,382.995z M403.664,384.241l6.709-11.304c0.436-0.118,1.285-0.272,1.98,0.093c0.559,0.295,0.965,0.902,1.205,1.81
		l-6.689,11.869C405.668,385.773,404.588,384.943,403.664,384.241 M412.477,391.162l6.582-11.087
		c0.438-0.122,1.289-0.274,1.988,0.101c0.557,0.296,0.957,0.9,1.197,1.8l-6.625,11.758
		C414.541,392.839,413.492,391.983,412.477,391.162 M421.232,398.495l6.764-11.39c0.438-0.123,1.289-0.276,1.99,0.101
		c0.553,0.293,0.957,0.898,1.195,1.8l-6.873,12.198C423.279,400.285,422.254,399.38,421.232,398.495 M453.848,421.545
		c-0.666,0.374-1.313,0.686-1.934,0.946l0.01,0.023c-3.35,1.444-5.951,1.284-7.023,1.112c-4.088-6.538-11.443-14.109-19.031-21.013
		l7.486-13.282l-0.076-0.375c-0.354-1.742-1.145-2.945-2.348-3.576c-1.859-0.979-3.939-0.113-4.027-0.074l-0.311,0.131
		l-6.939,11.694c-0.82-0.7-1.633-1.392-2.43-2.062l7.195-12.767l-0.076-0.376c-0.357-1.743-1.146-2.944-2.35-3.576
		c-1.859-0.978-3.939-0.111-4.025-0.074l-0.311,0.132l-6.799,11.449c-0.818-0.656-1.602-1.276-2.354-1.869l7.227-12.824
		l-0.074-0.375c-0.355-1.742-1.146-2.945-2.35-3.579c-1.49-0.781-3.105-0.383-3.738-0.174l-8.293-13.484
		c-0.332-0.646-1.082-1.45-2.193-1.734c-1.117-0.282-1.758,0.445-2.445,1.832l-3.254,1.634c0.004-0.026,0.004-0.055,0.01-0.08
		c0.605-3.152,9.35-7.981,17.92-11.682l0.002,0.003c0.652-0.284,1.307-0.563,1.955-0.832c3.982,3.336,10.773,12.198,13.021,19.101
		c0.215,0.664,0.406,1.263,0.58,1.811c1.842,5.818,1.992,6.294,13.633,22.592c10.346,14.483,13.393,27.073,14.125,30.87
		C454.365,421.237,454.105,421.395,453.848,421.545 M456.611,419.615c-0.785-3.688-2.924-11.521-8.328-21.207
		c-1.674-3.002-3.664-6.182-6.021-9.467c-11.482-16.008-11.625-16.46-13.387-21.986c-0.178-0.554-0.369-1.156-0.59-1.827
		c-2.254-6.877-8.572-15.316-12.885-19.293c0.852-0.335,1.688-0.654,2.498-0.953c3.814,3.095,10.547,11.826,12.752,18.604
		c0.211,0.649,0.396,1.233,0.568,1.771c1.838,5.807,2.242,6.618,13.43,22.276c10.477,14.669,13.266,27.337,13.818,30.428
		C457.84,418.582,457.221,419.12,456.611,419.615 M460.42,407.591l-1.205,0.766c-0.307-0.872-0.645-1.789-1.02-2.748l0.684-0.438
		c0.324-0.205,0.707-0.273,1.082-0.191c0.373,0.084,0.693,0.307,0.898,0.633C461.268,406.3,461.086,407.166,460.42,407.591"/>
	<path clip-path="url(#SVGID_2_)" fill="none" stroke="#010202" stroke-width="2.563" stroke-miterlimit="10" d="M462.697,404.684
		c-0.033-0.06-0.066-0.118-0.104-0.174c-0.502-0.786-1.277-1.332-2.188-1.535c-0.908-0.201-1.844-0.039-2.629,0.463l-0.373,0.236
		c-0.617-1.459-1.318-3.001-2.113-4.612l1.426-0.908c1.564-0.994,2.068-3.041,1.176-4.641c-0.033-0.06-0.068-0.116-0.105-0.175
		c-0.5-0.786-1.277-1.33-2.186-1.532c-0.91-0.203-1.844-0.041-2.629,0.46l-1.012,0.644c-0.764-1.294-1.598-2.619-2.484-3.966
		l1.08-0.688c1.568-0.995,2.07-3.041,1.178-4.641c-0.035-0.059-0.07-0.116-0.104-0.174c-1.033-1.624-3.193-2.105-4.818-1.073
		l-1.336,0.85c-9.455-13.214-9.674-13.892-11.285-18.934c-0.172-0.544-0.361-1.136-0.578-1.795c-0.535-1.634-1.313-3.36-2.23-5.092
		l1.32-0.837c0.662-0.419,1.139-1.038,1.4-1.762c0.053-0.138,0.104-0.275,0.137-0.418l0.002-0.003v-0.01
		c0.191-0.824,0.094-1.71-0.342-2.489c-0.033-0.06-0.066-0.115-0.104-0.174c-0.5-0.787-1.277-1.331-2.186-1.534
		c-0.91-0.202-1.846-0.04-2.631,0.462l-1.275,0.811c-0.615-0.869-1.242-1.721-1.871-2.529l0.523-0.33
		c0.943-0.598,1.488-1.578,1.592-2.61c0.006-0.059,0.018-0.116,0.021-0.175c0.004-0.112-0.006-0.222-0.01-0.332
		c-0.006-0.119-0.006-0.239-0.025-0.357c-0.01-0.068-0.031-0.135-0.045-0.202c-0.035-0.161-0.068-0.319-0.127-0.477
		c-0.014-0.037-0.033-0.071-0.049-0.106c-0.053-0.138-0.104-0.276-0.178-0.409c-0.031-0.06-0.066-0.116-0.104-0.176
		c-0.5-0.785-1.275-1.329-2.186-1.531c-0.91-0.203-1.844-0.038-2.631,0.462l-1.502,0.955c-0.756-0.718-1.465-1.323-2.078-1.753
		l-0.656-0.457l-0.752,0.271c-1.029,0.374-3.053,1.126-5.545,2.151c-7.93,3.241-20.65,9.246-21.715,14.785
		c-0.115,0.587-0.131,1.323,0.127,2.113l-49.998,25.11l-26.681-34.311h55.157c8.508,0,7.664-7.662,7.664-7.662V217.636
		c0-4.053-2.471-6.027-2.471-6.027l-9.775-9.021c-2.736-2.525-7.143-2.471-7.143-2.471h-20.855
		c4.764-9.662,7.393-20.372,7.393-31.181c0-38.247-31.117-69.363-69.365-69.363c-35.195,0-64.332,26.354-68.761,60.361
		c-8.02,10.899-14.494,24.352-19.313,40.183h-2.315c-2.832-9.054-6.114-24.486-2.678-40.471l-5.312,1.683
		c-2.057,5.682-5.26,17.391-5.188,35.07l-5.432-7.39c-1.344-1.828-3.319-3.022-5.563-3.365c-0.002-0.001-0.004-0.001-0.005-0.001
		c0.027-6.954,1.232-13.788,3.611-20.331l-6.026,1.91c-1.865,6.249-2.791,12.71-2.732,19.268c-0.399,0.205-0.79,0.436-1.158,0.706
		c-1.828,1.345-3.023,3.319-3.366,5.563c-0.343,2.242,0.209,4.484,1.553,6.313l0.77,1.046H139.85c-4.766,0-4.702,4.774-4.702,4.774
		v6.857c-20.514,4.767-36.305-13.972-39.401-17.977l-2.822,3.053l-22.171,20.22l22.171-20.22c3.83,4.78,17.337,19.819,35.542,19.819
		c2.161,0,4.396-0.238,6.682-0.705v48.858c-38.589-3.55-60.917-41.412-64.395-47.753l-3.379,2.378
		c4.422,7.91,27.743,46.05,67.773,49.503v62.142l-21.56,8.178c-6.329,1.839-11.573,6.021-14.773,11.788
		c-3.22,5.801-3.988,12.504-2.163,18.88c0.597,2.091,1.454,4.039,2.514,5.83l25.38,67.915c-6.284,2.824-37.77,16.604-55.112,17.199
		l-0.596,0.02l-0.428,0.416c-0.262,0.257-6.392,6.416-2.562,18.863l0.216,0.701l0.68,0.275c0.249,0.101,2.995,1.174,7.769,2.15
		l0.11,1.937c0.107,1.853,1.648,3.288,3.481,3.288c0.067,0,0.136-0.002,0.204-0.007c0.931-0.051,1.783-0.465,2.404-1.161
		c0.619-0.695,0.931-1.593,0.877-2.521l-0.025-0.439c1.576,0.174,3.267,0.31,5.058,0.399l0.099,1.688
		c0.106,1.852,1.648,3.287,3.481,3.287c0.065,0,0.134-0.002,0.203-0.005c0.93-0.054,1.782-0.467,2.403-1.163
		c0.619-0.695,0.933-1.59,0.879-2.521l-0.07-1.194c1.503-0.039,3.067-0.121,4.675-0.24l0.073,1.281
		c0.106,1.852,1.649,3.288,3.481,3.288c0.067,0,0.135-0.003,0.203-0.007c1.92-0.109,3.392-1.762,3.282-3.684l-0.092-1.581
		c16.147-1.82,16.844-1.681,22.033-0.63c0.56,0.113,1.168,0.237,1.85,0.368c1.693,0.33,3.586,0.491,5.552,0.533l0.093,1.599
		c0.107,1.853,1.648,3.289,3.48,3.289c0.068,0,0.137-0.002,0.204-0.008c0.931-0.052,1.783-0.465,2.404-1.159
		c0.619-0.698,0.932-1.593,0.877-2.523l-0.087-1.511c1.066-0.11,2.121-0.244,3.139-0.402l0.037,0.639
		c0.106,1.852,1.648,3.287,3.481,3.287c0.066,0,0.135-0.002,0.203-0.008c0.932-0.049,1.783-0.465,2.404-1.16
		c0.619-0.695,0.932-1.592,0.878-2.521l-0.103-1.779c0.995-0.312,1.868-0.634,2.542-0.962l0.719-0.348l0.129-0.79
		c0.736-4.518,4.124-27.301-1.56-32.06c-0.786-0.658-2.092-1.289-3.935-0.829l-6.626-62.768l54.046-9.652
		c1.337,0.455,2.728,0.39,3.871,0.329c1.794-0.095,2.853-0.104,3.829,0.793c1.305,1.194,1.704,2.518,2.126,3.92
		c0.69,2.299,1.554,5.161,6.337,5.845c2.058,0.295,3.784,0.205,5.308,0.13c3.111-0.161,4.676-0.238,7.086,2.729
		c4.503,5.54,10.803,3.12,13.832,1.956c0.606-0.233,1.182-0.454,1.527-0.538c0.425,0.076,1.481,0.754,2.189,1.207
		c1.662,1.063,3.921,2.512,6.4,2.512c1.038,0,2.117-0.256,3.205-0.898c3.098-1.833,5.705-4.337,7.858-7.46l50.467,43.183
		c4.683,4.645,10.887,7.201,17.484,7.201c6.631,0,12.867-2.584,17.557-7.274c0.951-0.951,1.795-1.983,2.57-3.053l50.082-40.718
		c3.756,2.78,34.529,25.837,43.881,41.392l0.305,0.511l0.57,0.173c0.123,0.035,1.195,0.342,2.92,0.342
		c2.088,0,5.139-0.457,8.611-2.38c0.016-0.01,0.031-0.021,0.049-0.032c0.268-0.149,0.539-0.301,0.813-0.469
		c1.758-1.063,3.609-2.506,5.498-4.475l0.506-0.53l-0.092-0.729c-0.033-0.266-0.436-3.188-1.906-7.831l1.637-1.042
		C463.086,408.33,463.59,406.285,462.697,404.684z M454.074,394.001c0.322-0.207,0.707-0.272,1.08-0.19
		c0.375,0.083,0.695,0.307,0.9,0.629c0.193,0.331,0.271,0.71,0.189,1.083c-0.084,0.373-0.309,0.692-0.633,0.898l-1.252,0.797
		c-0.383-0.734-0.779-1.478-1.203-2.234c-0.053-0.096-0.115-0.195-0.17-0.292L454.074,394.001z M447.916,384.103
		c0.666-0.426,1.555-0.228,1.98,0.439c0.193,0.329,0.271,0.708,0.188,1.081c-0.082,0.374-0.305,0.692-0.629,0.897l-1.129,0.719
		c-0.359-0.521-0.711-1.04-1.092-1.567c-0.191-0.268-0.373-0.522-0.559-0.781L447.916,384.103z M430.072,352.402
		c0.324-0.205,0.707-0.271,1.082-0.189c0.373,0.085,0.691,0.31,0.896,0.634c0.203,0.321,0.268,0.702,0.186,1.074
		c-0.088,0.358-0.301,0.668-0.615,0.866l-1.252,0.796c-0.475-0.815-0.975-1.625-1.496-2.422L430.072,352.402z M423.727,344.423
		c0.322-0.205,0.707-0.27,1.08-0.188c0.371,0.084,0.691,0.309,0.898,0.633c0.102,0.162,0.164,0.34,0.197,0.518
		c0.084,0.547-0.146,1.12-0.643,1.438l-0.738,0.469c-0.65-0.774-1.291-1.503-1.91-2.164L423.727,344.423z M344.443,205.253h12.867
		c0,0,2.375-0.02,4.346,1.799l8.982,8.292c0,0,0.861,0.768,0.861,2.752v126.109c0,0,0.318,2.193-2.629,2.193h-80.592
		c0.207-2.922-2.411-6.882-3.367-8.22h72.531c0.387,0.004,1.941,0.057,2.967,0.698l7.994,4.996l-6.355-6.931
		c-0.004-0.005-0.838-0.934-0.854-2.64l-1.129-121.344l-1.896,120.612v-0.002c-0.023,1.349-1.043,1.553-1.447,1.582l-0.174,0.006
		l0,0l-71.984,2.549c-0.068-0.094,0,0,0,0c16.229-15.434,25.577-31.599,30.854-46.212c2.448-0.333,3.046-2.257,3.046-2.257
		l7.25-14.738l28.475,47.739l-26.867-51.006l26.656-54.21l-36.16,65.25c6.951-24.703,2.74-41.601,2.74-41.601
		c8.201-3,5.367-11.679,5.367-11.679C334.094,223.869,341.846,210.166,344.443,205.253z M252.141,242.039
		c7.983-0.315,46.773-1.246,57.611,9.795c-0.089,4.824-0.54,10.389-1.653,16.445c-3.341,18.155-13.495,44.51-42.776,67.473
		l-27.057-14.301c12.721-17.55,15.456-40.434,15.456-56.729C253.722,255.696,252.937,247.767,252.141,242.039z M244.779,230.973
		c-2.418,0-4.384-1.966-4.384-4.383c0-2.418,1.966-4.385,4.384-4.385h65.449c2.418,0,4.385,1.967,4.385,4.385
		c0,2.417-1.967,4.383-4.385,4.383H244.779z M274.422,105.048c35.229,0,63.889,28.659,63.889,63.888
		c0,18.99-9.49,37.962-24.075,50.168c-1.194-0.642-2.558-1.008-4.007-1.008h-65.449c-2.83,0-5.336,1.396-6.879,3.531
		c-16.565-12.011-27.366-32.262-27.366-52.691C210.534,133.708,239.193,105.048,274.422,105.048z M205.08,168.076
		c-0.005,0.288-0.022,0.572-0.022,0.86c0,0-5.213,15.904-0.878,31.181h-13.518C194.478,187.905,199.298,177.192,205.08,168.076z
		 M175.987,179.816c0.57,7.973,2.179,15.024,3.752,20.301h-4.711C174.795,192.235,175.237,185.456,175.987,179.816z
		 M154.247,193.378c0.176-1.157,0.794-2.178,1.736-2.871c0.944-0.692,2.103-0.979,3.259-0.802c1.158,0.178,2.177,0.795,2.871,1.737
		l6.376,8.674h-10.883l-2.558-3.48C154.354,195.692,154.07,194.535,154.247,193.378z M140.285,206.475
		c0-1.252,1.39-1.222,1.39-1.222h74.36c5.344,8.658,12.333,16.3,20.281,22.009l0.003-0.009c0.34,4.373,3.999,7.829,8.46,7.829h2.029
		c1.22,6.23,5.166,27.416,0.636,51.022h-64.243c-1.81,0-2.7-1.373-2.7-1.373l-34.84-69.057l23.989,55.554l-24.02,52.452
		l26.048-48.185l5.725,13.162c0,0,1.585,2.903,5.446,2.903h63.955c-2.219,9.887-6.02,19.644-12.221,28.003
		c-1.335-0.564-2.806-0.668-4.205-0.236c-1.578,0.486-2.87,1.558-3.643,3.018c-0.337,0.638-0.543,1.31-0.643,1.987
		c-3.476,0.088-12.329,0.523-18.454,2.659c-6.994,2.443-18.684,0.098-20.136-0.954c-1.291-1.024-2.956-1.088-4.345-0.168
		c-1.892,1.254-3.271,4.434-2.612,8.331l-32.557,1.923l33.36,0.933c1.86,4.817,5.771,7.876,11.989,9.342h-39.123
		c-1.057,0-1.84-0.576-1.84-0.576l-11.36-9.737c0,0-0.731-0.628-0.731-1.918V206.475z M106.12,383.278
		c1.475,1.05,3.052,1.949,4.717,2.658c0,0,0.037,0.012,0.09,0.032c1.422,0.6,2.904,1.05,4.423,1.378
		c5.451,1.454,15.017,3.218,24.067,0.984l0.692,5.421l-28.63,4.68L106.12,383.278z M112.178,400.403l28.193-4.612l0.947,7.404
		l-26.4,4.957L112.178,400.403z M115.611,410.112l25.967-4.876l0.54,4.209l-25.077,4.707L115.611,410.112z M124.67,446.984
		l6.618,11.341c-0.106,0.442-0.386,1.259-1.053,1.691c-0.528,0.341-1.253,0.398-2.156,0.172l-7.114-11.584
		C122.445,447.968,123.698,447.417,124.67,446.984z M114.36,451.362l6.471,11.091c-0.106,0.442-0.385,1.259-1.052,1.69
		c-0.528,0.344-1.253,0.398-2.157,0.173l-7.032-11.451C111.901,452.352,113.159,451.851,114.36,451.362z M103.704,455.47
		l6.642,11.383c-0.105,0.439-0.385,1.257-1.041,1.687c-0.53,0.349-1.256,0.405-2.167,0.177l-7.293-11.875
		C101.149,456.389,102.438,455.93,103.704,455.47z M79.177,485.974c-0.255,0.283-0.604,0.455-0.988,0.476
		c-0.801,0.02-1.469-0.558-1.514-1.348l-0.082-1.426c0.909,0.158,1.875,0.309,2.897,0.448l0.048,0.812
		C79.56,485.318,79.432,485.686,79.177,485.974z M91.272,487.219c-0.255,0.285-0.605,0.454-0.987,0.478
		c-0.382,0.01-0.752-0.107-1.036-0.363c-0.286-0.254-0.455-0.604-0.478-0.986l-0.086-1.483c0.827,0.022,1.671,0.037,2.536,0.037
		c0.111,0,0.229-0.005,0.337-0.005l0.075,1.286C91.655,486.566,91.528,486.93,91.272,487.219z M101.931,487.141
		c-0.383,0.009-0.752-0.108-1.037-0.362c-0.286-0.255-0.455-0.605-0.477-0.988l-0.078-1.336c0.631-0.06,1.256-0.113,1.9-0.188
		c0.326-0.039,0.638-0.073,0.955-0.108l0.083,1.467C103.324,486.416,102.72,487.094,101.931,487.141z M139.321,486.55
		c-0.256,0.285-0.606,0.456-0.988,0.477c-0.382,0.016-0.752-0.104-1.037-0.359c-0.285-0.255-0.454-0.606-0.478-0.989l-0.085-1.48
		c0.95-0.021,1.907-0.061,2.865-0.129l0.083,1.445C139.703,485.896,139.576,486.264,139.321,486.55z M149.376,484.874
		c-0.255,0.286-0.606,0.456-0.988,0.479c-0.788,0.04-1.469-0.561-1.515-1.349l-0.05-0.877c0.997-0.189,1.952-0.396,2.837-0.617
		l0.075,1.327C149.759,484.218,149.63,484.586,149.376,484.874z M152.165,478.52c-4.559,1.835-15.458,3.481-22.456,2.12
		c-0.671-0.132-1.271-0.252-1.822-0.364c-5.968-1.209-6.875-1.253-25.997,0.929c-17.909,2.043-30.34-1.668-33.312-2.687
		c-0.256-0.915-0.438-1.779-0.581-2.608c3.591,1.109,11.488,3.068,22.611,3.068c3.437,0,7.182-0.186,11.198-0.646
		c19.574-2.229,20.04-2.135,25.724-0.982c0.57,0.116,1.189,0.242,1.882,0.378c7.107,1.38,17.56-0.026,23.132-1.854
		C152.423,476.779,152.298,477.667,152.165,478.52z M150.616,456.76c0.92-0.977,1.252-3.558,0.985-5.467l-1.44,1.151l-0.32-3.035
		l0.212,0.604c0.825-0.291,1.212-0.097,1.483,0.128c2.648,2.218,2.423,13.625,1.29,23.452c-4.849,1.864-15.896,3.5-23.02,2.115
		c-0.688-0.134-1.303-0.259-1.866-0.373c-5.979-1.212-6.469-1.312-26.367,0.955c-17.685,2.015-30.174-1.43-33.846-2.635
		c-0.366-5.489,1.639-8.677,2.482-9.749c7.849-0.401,18.051-3.152,27.642-6.386l7.946,12.938l0.364,0.114
		c0.707,0.225,1.369,0.335,1.984,0.335c0.857,0,1.621-0.218,2.283-0.651c1.756-1.15,2.01-3.389,2.02-3.484l0.035-0.335
		l-6.821-11.688c1.015-0.379,2.006-0.755,2.979-1.13l7.639,12.437l0.364,0.116c0.709,0.223,1.371,0.335,1.984,0.335
		c0.857,0,1.622-0.218,2.285-0.652c1.755-1.151,2.008-3.389,2.018-3.483l0.036-0.335l-6.688-11.462
		c0.975-0.4,1.905-0.79,2.773-1.158l7.683,12.512l0.366,0.114c0.707,0.224,1.367,0.337,1.983,0.337c0.857,0,1.62-0.218,2.283-0.652
		c1.414-0.928,1.848-2.54,1.972-3.19l14.693-0.7C148.767,457.854,149.829,457.595,150.616,456.76z M147.923,454.805l-15.895,0.711
		l-0.905-1.551l-9.948-28.125l22.468-4.474L147.923,454.805z M143.382,419.324l-22.899,4.559l-2.749-7.771l24.646-4.626
		L143.382,419.324z M126.223,381.955l-0.285,0.063c-10.44,2.985-21.361-3.078-24.348-13.518c-1.446-5.056-0.837-10.375,1.715-14.975
		c2.554-4.596,6.744-7.926,11.801-9.373l20.408-7.729c0.665,2.248,2.012,3.436,2.012,3.436l11.442,9.807c0,0,2.805,1.87,5.975,1.87
		h4.074l5.6,4.838c0,0,3.826,1.87,8.577,1.87h20.04c-0.999,3.216-1.396,6.653-0.622,10.172c0.199,0.906,0.447,1.681,0.729,2.355
		L126.223,381.955z M263.248,380.585l-0.086-0.073c0.053-0.111,0.103-0.226,0.153-0.337L263.248,380.585z M250.619,388.978
		c-1.4,0.831-3.007-0.07-5.298-1.538c-1.731-1.107-3.37-2.159-5.158-1.788c-0.664,0.138-1.398,0.419-2.248,0.745
		c-3.581,1.377-6.742,2.273-9.167-0.711c-3.726-4.587-7.161-4.411-10.485-4.243c-1.403,0.071-2.854,0.146-4.519-0.093
		c-2.184-0.313-2.369-0.927-2.982-2.962c-0.483-1.606-1.146-3.807-3.281-5.764c-2.298-2.107-4.913-1.967-6.823-1.867
		c-2.459,0.137-3.284,0.174-4.032-3.225c-1.601-7.276,3.009-14.336,7.867-20.944c3.854-5.239,8.506-9.445,8.567-9.47
		c-0.282,0.108-6.617,0.746-11.181,6.166c-13.021-0.374-15.998-4.931-17.095-8.905c-0.688-2.493-0.008-4.325,0.464-4.911
		c3.296,2.096,16.11,4.068,23.747,1.406c6.002-2.095,15.412-2.402,17.927-2.446c0.56,0.929,1.364,1.723,2.392,2.267l32.124,16.979
		c0.7,0.371,1.44,0.591,2.184,0.674C264.67,369.569,260.308,383.25,250.619,388.978z M267.061,343.657
		c-0.796,1.511-2.675,2.089-4.183,1.292l-32.125-16.98c-1.51-0.798-2.089-2.674-1.291-4.182c0.387-0.731,1.035-1.269,1.824-1.512
		c0.302-0.093,0.609-0.14,0.915-0.14c0.498,0,0.992,0.122,1.443,0.359l32.126,16.98c0.73,0.388,1.269,1.035,1.514,1.824
		C267.527,342.089,267.448,342.927,267.061,343.657z M268.957,338.142c-0.005-0.005-0.011-0.009-0.016-0.015
		c0.014-0.011,0.027-0.021,0.04-0.033c-0.016,0.017-0.029,0.029-0.029,0.029C268.955,338.13,268.955,338.137,268.957,338.142z
		 M342.445,424.535c-3.719,3.718-8.664,5.769-13.924,5.769s-10.205-2.051-13.924-5.769l-42.924-36.739
		c6.548-12.221,7.825-23.838,8.042-29.098h33.165l29.354,37.749l0.211,0.24c3.721,3.718,5.766,8.663,5.766,13.924
		C348.211,415.87,346.166,420.816,342.445,424.535z M352.537,416.834c0.52-2.01,0.814-4.093,0.814-6.224
		c0-0.412-0.039-0.818-0.061-1.226l0.061,0.088c0.428-5.317-3.961-19.426-5.084-22.931l3.166-1.59l13.084,22.417L352.537,416.834z
		 M366.146,406.083l-12.875-22.055l6.801-3.415l12.09,20.716L366.146,406.083z M373.793,400.043l-11.881-20.354l3.955-1.984
		l11.455,19.55L373.793,400.043z M378.951,395.968l-11.244-19.188l6.795-3.412l10.344,17.942L378.951,395.968z M386.477,390.024
		l-10.135-17.582l23.291-11.695l7.809,12.713L386.477,390.024z M402.014,382.995c-0.309-0.232-0.574-0.43-0.814-0.608l2.27-1.844
		L402.014,382.995z M403.664,384.241l6.709-11.304c0.436-0.118,1.285-0.272,1.98,0.093c0.559,0.295,0.965,0.902,1.205,1.81
		l-6.689,11.869C405.668,385.773,404.588,384.943,403.664,384.241z M412.477,391.162l6.582-11.087
		c0.438-0.122,1.289-0.274,1.988,0.101c0.557,0.296,0.957,0.9,1.197,1.8l-6.625,11.758
		C414.541,392.839,413.492,391.983,412.477,391.162z M421.232,398.495l6.764-11.39c0.438-0.123,1.289-0.276,1.99,0.101
		c0.553,0.293,0.957,0.898,1.195,1.8l-6.873,12.198C423.279,400.285,422.254,399.38,421.232,398.495z M453.848,421.545
		c-0.666,0.374-1.313,0.686-1.934,0.946l0.01,0.023c-3.35,1.444-5.951,1.284-7.023,1.112c-4.088-6.538-11.443-14.109-19.031-21.013
		l7.486-13.282l-0.076-0.375c-0.354-1.742-1.145-2.945-2.348-3.576c-1.859-0.979-3.939-0.113-4.027-0.074l-0.311,0.131
		l-6.939,11.694c-0.82-0.7-1.633-1.392-2.43-2.062l7.195-12.767l-0.076-0.376c-0.357-1.743-1.146-2.944-2.35-3.576
		c-1.859-0.978-3.939-0.111-4.025-0.074l-0.311,0.132l-6.799,11.449c-0.818-0.656-1.602-1.276-2.354-1.869l7.227-12.824
		l-0.074-0.375c-0.355-1.742-1.146-2.945-2.35-3.579c-1.49-0.781-3.105-0.383-3.738-0.174l-8.293-13.484
		c-0.332-0.646-1.082-1.45-2.193-1.734c-1.117-0.282-1.758,0.445-2.445,1.832l-3.254,1.634c0.004-0.026,0.004-0.055,0.01-0.08
		c0.605-3.152,9.35-7.981,17.92-11.682l0.002,0.003c0.652-0.284,1.307-0.563,1.955-0.832c3.982,3.336,10.773,12.198,13.021,19.101
		c0.215,0.664,0.406,1.263,0.58,1.811c1.842,5.818,1.992,6.294,13.633,22.592c10.346,14.483,13.393,27.073,14.125,30.87
		C454.365,421.237,454.105,421.395,453.848,421.545z M456.611,419.615c-0.785-3.688-2.924-11.521-8.328-21.207
		c-1.674-3.002-3.664-6.182-6.021-9.467c-11.482-16.008-11.625-16.46-13.387-21.986c-0.178-0.554-0.369-1.156-0.59-1.827
		c-2.254-6.877-8.572-15.316-12.885-19.293c0.852-0.335,1.688-0.654,2.498-0.953c3.814,3.095,10.547,11.826,12.752,18.604
		c0.211,0.649,0.396,1.233,0.568,1.771c1.838,5.807,2.242,6.618,13.43,22.276c10.477,14.669,13.266,27.337,13.818,30.428
		C457.84,418.582,457.221,419.12,456.611,419.615z M460.42,407.591l-1.205,0.766c-0.307-0.872-0.645-1.789-1.02-2.748l0.684-0.438
		c0.324-0.205,0.707-0.273,1.082-0.191c0.373,0.084,0.693,0.307,0.898,0.633C461.268,406.3,461.086,407.166,460.42,407.591z"/>
	<path clip-path="url(#SVGID_2_)" fill="#010202" d="M184.827,191.402l2.301-7.879c3.955-13.545,9.88-23.332,15.876-30.34
		l-4.624-1.019c-4.25,5.319-8.383,12.009-11.8,20.415c0.124-4.697,0.794-10.824,2.688-17.81l-4.346,1.439l0.509,2.145l-1.36,0.431
		c-2.969,14.355-1.028,24.087-0.926,24.582L184.827,191.402z"/>
	<path clip-path="url(#SVGID_2_)" fill="none" stroke="#010202" stroke-width="2.563" stroke-miterlimit="10" d="M184.827,191.402
		l2.301-7.879c3.955-13.545,9.88-23.332,15.876-30.34l-4.624-1.019c-4.25,5.319-8.383,12.009-11.8,20.415
		c0.124-4.697,0.794-10.824,2.688-17.81l-4.346,1.439l0.509,2.145l-1.36,0.431c-2.969,14.355-1.028,24.087-0.926,24.582
		L184.827,191.402z"/>
	<path clip-path="url(#SVGID_2_)" fill="#010202" d="M292.714,289.375c0.455,0.15,0.933,0.223,1.425,0.223
		c2.43-0.001,5.23-1.758,7.358-4.735c3.877-5.43-2.831-9.66-3.011-9.913c0.128,0.182,3.094,4.493,0.502,8.121
		c-1.922,2.692-4.173,3.745-5.316,3.377c-0.904-0.296-1.021-1.668-1.012-2.461c0.022-1.746,0.989-2.806,1.885-3.215
		c0.599-0.273,1.082-0.229,1.218-0.11c0.095,0.078,1.206,0.885,0.682,2.218c1.88-1.215,1.958-4.024,1.311-4.571
		c-1.13-0.958-2.852-1.083-4.489-0.339c-1.757,0.802-3.646,2.793-3.687,5.979C289.527,287.904,291.753,289.062,292.714,289.375"/>
	<path clip-path="url(#SVGID_2_)" fill="none" stroke="#010202" stroke-width="2.563" stroke-miterlimit="10" d="M292.714,289.375
		c0.455,0.15,0.933,0.223,1.425,0.223c2.43-0.001,5.23-1.758,7.358-4.735c3.877-5.43-2.831-9.66-3.011-9.913
		c0.128,0.182,3.094,4.493,0.502,8.121c-1.922,2.692-4.173,3.745-5.316,3.377c-0.904-0.296-1.021-1.668-1.012-2.461
		c0.022-1.746,0.989-2.806,1.885-3.215c0.599-0.273,1.082-0.229,1.218-0.11c0.095,0.078,1.206,0.885,0.682,2.218
		c1.88-1.215,1.958-4.024,1.311-4.571c-1.13-0.958-2.852-1.083-4.489-0.339c-1.757,0.802-3.646,2.793-3.687,5.979
		C289.527,287.904,291.753,289.062,292.714,289.375z"/>
</g>
</svg>
